<svg width="343" height="344" viewBox="0 0 343 344" fill="none" xmlns="http://www.w3.org/2000/svg">
<path d="M287.348 180.134L271.189 175.522L268.843 168.658L225.62 156.322C227.327 152.829 228.951 149.308 230.461 145.757C235.015 135.055 238.906 123.43 238.966 111.676C239.08 88.7351 224.923 73.4617 206.407 66.3306C186.411 47.273 149.533 44.842 125.681 60.492C113.033 68.7901 104.466 82.0592 103.956 97.4041C103.456 112.454 108.386 127.469 114.431 141.045C115.707 143.91 117.06 146.741 118.476 149.539L55.4888 171.934L19.2236 278.003L43.9526 271.276L37.729 289.479L123.55 266.135L182.066 301.61L237.665 263.093L323.667 286.359L287.348 180.134Z" fill="#E3D5E3"/>
<path d="M271.19 175.522L268.843 168.658L225.62 156.322L204.391 150.264C207.126 145.005 209.661 139.675 211.956 134.281C216.509 123.579 220.401 111.954 220.46 100.2C220.532 85.8847 215.041 74.5596 206.407 66.3306C186.411 47.273 149.533 44.842 125.681 60.492C113.033 68.7901 104.466 82.0592 103.956 97.4041C103.456 112.454 108.386 127.469 114.431 141.045C115.707 143.91 117.06 146.741 118.476 149.539L55.4889 171.934L19.2236 278.003L43.9526 271.276L105.044 254.659L163.56 290.134L219.16 251.617L305.161 274.883L271.19 175.522Z" fill="#E84531"/>
<path d="M265.36 172.339L202.239 154.324C202.972 152.975 203.697 151.623 204.404 150.264C207.139 145.005 209.674 139.675 211.969 134.282C216.522 123.579 220.415 111.954 220.474 100.2C220.545 85.8848 215.054 74.5597 206.42 66.3307C186.424 47.2731 149.547 44.8422 125.695 60.4922C113.047 68.7903 104.479 82.0593 103.969 97.4043C103.469 112.454 108.399 127.47 114.445 141.045C115.721 143.91 117.074 146.741 118.49 149.539C119.173 150.89 119.871 152.233 120.583 153.569L59.0563 175.445L26.2366 271.437L105.74 249.811L163.41 284.774L204.201 256.516L218.33 246.729L298.18 268.33L265.36 172.339Z" fill="#EADADA"/>
<path d="M201.244 172.054L198.648 160.699C199.872 158.587 201.064 156.462 202.225 154.324C202.959 152.975 203.684 151.623 204.391 150.264C207.125 145.005 209.661 139.675 211.956 134.282C216.509 123.579 220.401 111.954 220.46 100.2C220.532 85.8848 215.041 74.5597 206.407 66.3308C186.411 47.2729 149.533 44.842 125.681 60.492C113.033 68.7901 104.466 82.0591 103.956 97.4041C103.456 112.454 108.386 127.469 114.431 141.045C115.707 143.91 117.06 146.741 118.476 149.539C119.159 150.89 119.857 152.233 120.57 153.569C121.725 155.734 122.924 157.876 124.147 160.004L119.555 182.391L115.609 201.633H115.608L105.726 249.811L163.397 284.773L204.188 256.516L218.317 246.729L208.807 205.135L201.244 172.054Z" fill="#D7B4B4"/>
<path d="M206.407 66.3306C186.411 47.273 149.533 44.842 125.681 60.492C113.033 68.7901 104.466 82.0592 103.956 97.4041C103.456 112.454 108.386 127.469 114.431 141.045C115.707 143.91 117.06 146.741 118.476 149.539C119.159 150.89 119.857 152.233 120.57 153.569C121.725 155.734 122.924 157.876 124.147 160.004C126.72 164.477 129.425 168.874 132.237 173.194C133.309 174.841 138.782 182.154 144.705 190.012C152.68 200.592 161.469 212.159 161.425 212.211C167.714 204.929 173.854 197.314 179.69 189.42C186.508 180.201 192.906 170.599 198.648 160.699C199.872 158.587 201.064 156.462 202.226 154.324C202.959 152.975 203.684 151.623 204.391 150.264C207.125 145.005 209.661 139.675 211.956 134.282C216.509 123.579 220.401 111.954 220.46 100.2C220.532 85.8849 215.041 74.5597 206.407 66.3306Z" fill="#4A4999"/>
<path d="M270.579 206.281C269.631 204.331 267.477 203.32 265.962 201.769C261.581 197.286 262.634 188.522 257.031 185.708C254.817 184.595 252.151 184.832 249.84 183.938C247.561 183.057 245.761 181.129 243.404 180.483C240.977 179.818 238.425 180.624 235.921 180.887C227.906 181.725 220.532 176.995 213.033 174.043C209.407 172.615 205.158 171.773 201.244 172.054C197.069 172.352 193.275 173.927 191.025 177.428C188.271 181.714 187.854 188.597 182.866 189.628C181.797 189.849 180.739 189.709 179.69 189.42C173.853 197.314 167.713 204.929 161.424 212.211C161.469 212.159 152.679 200.592 144.704 190.012C142.187 191.206 139.511 192.216 137.117 191.033C134.96 189.968 133.742 187.335 131.412 186.733C129.536 186.251 127.57 187.271 125.647 187.04C123.089 186.73 121.369 184.409 119.554 182.391C118.08 180.747 116.545 179.305 114.447 179.313C112.903 179.321 111.227 180.158 109.906 179.36C108.471 178.491 108.554 176.354 107.532 175.025C105.439 172.307 101.274 174.657 98.2474 176.274C89.5183 180.94 76.8818 178.239 70.8557 186.092C68.1146 189.665 67.6067 194.618 64.6851 198.045C63.2695 199.705 61.3728 200.893 59.9111 202.514C58.4493 204.134 57.443 206.498 58.327 208.493C62.5741 210.408 67.6738 210.319 71.8508 208.257C72.608 207.885 73.4287 207.437 74.2472 207.639C75.1839 207.87 75.7109 208.851 76.0282 209.762C77.1532 213 77.0535 216.648 75.7502 219.82C74.6567 222.483 73.1014 226.26 75.6454 227.604C76.6342 228.128 77.8612 227.92 78.9023 228.327C81.3542 229.284 81.3751 232.724 80.7814 235.289C80.188 237.853 79.6245 241.068 81.7145 242.666C83.3367 243.906 85.6857 243.369 87.5122 242.461C91.4771 240.493 94.6606 237.003 96.2589 232.875C98.9935 225.805 97.1287 217.4 100.682 210.702C102.122 207.988 104.915 205.559 107.946 206.053C108.906 206.21 109.854 206.655 110.814 206.492C113.054 206.117 113.961 202.847 115.607 201.633H115.609C116.08 201.285 116.612 201.106 117.253 201.213C119.78 201.632 119.502 205.932 121.821 207.023C124.398 208.232 127.242 204.343 129.888 205.393C131.037 205.848 131.649 207.096 131.989 208.283C133.687 214.216 131.14 220.409 129.835 226.44C128.529 232.469 129.216 240.1 134.709 242.906C136.652 243.899 138.888 244.093 141.001 244.636C149.725 246.878 156.222 254.563 162.208 260.796C164.647 263.336 165.713 265.262 168.129 262.824C171.64 259.278 173.836 254.969 177.902 251.627C182.228 248.073 187.533 243.977 187.549 237.814C187.563 231.267 181.289 224.719 184.405 218.963C185.102 217.677 186.209 216.643 186.843 215.327C189.228 210.362 184.259 203.275 188.176 199.403C192.339 200.613 195.684 202.036 197.56 205.945C198.076 207.02 198.511 208.21 199.465 208.926C201.595 210.527 204.575 208.783 206.54 206.981C207.231 206.35 207.997 205.685 208.807 205.136C210.303 204.12 211.946 203.497 213.527 204.196C216.077 205.326 216.303 209.064 218.556 210.706C222.244 213.394 227.397 208.551 231.785 209.805C234.762 210.658 236.208 213.92 237.462 216.752C240.942 224.622 245.812 231.875 251.778 238.078C252.552 238.883 253.404 239.705 254.493 239.952C255.651 240.216 256.84 239.779 257.947 239.349C260.038 238.538 262.239 237.645 263.582 235.848C264.495 234.629 264.909 233.12 265.306 231.65C267.009 225.327 268.712 219.002 270.415 212.678C270.982 210.571 271.533 208.243 270.579 206.281Z" fill="#13757B"/>
<path d="M189.738 89.8122C184.381 79.5503 173.647 72.5411 161.27 72.5411C143.541 72.5411 129.168 86.9127 129.168 104.642C129.168 113.116 132.458 120.818 137.822 126.556C143.179 136.817 153.913 143.826 166.29 143.826C184.019 143.826 198.391 129.454 198.391 111.725C198.391 103.251 195.102 95.5498 189.738 89.8122Z" fill="#383884"/>
<path d="M137.118 191.032C134.961 189.967 133.742 187.335 131.412 186.733C129.536 186.251 127.57 187.271 125.648 187.04C123.089 186.73 121.369 184.408 119.555 182.391L115.609 201.633C116.08 201.285 116.612 201.106 117.253 201.213C119.78 201.632 119.502 205.932 121.821 207.023C124.398 208.232 127.242 204.342 129.888 205.393C131.037 205.848 131.65 207.095 131.99 208.283C133.688 214.216 131.14 220.409 129.836 226.44C128.529 232.469 129.217 240.099 134.71 242.906C136.652 243.899 138.889 244.093 141.001 244.635C149.725 246.878 156.223 254.563 162.208 260.795C164.647 263.336 165.714 265.261 168.13 262.824C171.64 259.278 173.837 254.969 177.903 251.627C182.228 248.073 187.533 243.977 187.549 237.814C187.563 231.267 181.29 224.719 184.405 218.963C185.102 217.677 186.21 216.643 186.843 215.326C189.229 210.362 184.259 203.275 188.176 199.403C192.339 200.612 195.685 202.035 197.561 205.945C198.077 207.02 198.512 208.21 199.465 208.926C201.595 210.527 204.576 208.783 206.54 206.981C207.231 206.35 207.998 205.685 208.807 205.135L201.244 172.054C197.069 172.352 193.276 173.927 191.025 177.428C188.271 181.713 187.854 188.596 182.866 189.628C181.797 189.849 180.739 189.709 179.69 189.42C173.853 197.314 167.713 204.929 161.424 212.211C161.469 212.159 152.68 200.592 144.705 190.012C142.187 191.206 139.511 192.216 137.118 191.032Z" fill="#064347"/>
<path d="M161.27 136.743C178.999 136.743 193.371 122.371 193.371 104.642C193.371 99.2906 192.054 94.2492 189.738 89.8123C184.381 79.5505 173.647 72.5413 161.27 72.5413C143.541 72.5413 129.168 86.9128 129.168 104.642C129.168 113.116 132.458 120.819 137.822 126.556C143.68 132.822 152.015 136.743 161.27 136.743Z" fill="#EADADA"/>
</svg>
