<svg width="343" height="270" viewBox="0 0 343 270" fill="none" xmlns="http://www.w3.org/2000/svg">
<path d="M185.677 77.7182C185.855 77.4425 186.086 77.4099 186.334 77.6043C187.403 78.4443 188.449 79.3155 189.536 80.131C191.756 81.7954 193.952 83.4907 196.393 84.8398C198.823 86.1826 201.37 87.1412 204.171 86.8241C205.616 86.6604 207.074 86.5667 208.52 86.3111C210.331 85.9908 212.119 85.6216 213.838 84.9875C216.75 83.9139 219.554 82.6012 222.137 80.8665C223.874 79.6995 225.592 78.4994 227.267 77.2456C228.271 76.4948 229.167 75.603 230.126 74.7905C231.282 73.8102 232.453 72.8479 233.616 71.8758C234.379 71.2381 235.157 70.6176 235.896 69.9534C238.042 68.0247 240.339 66.2902 242.751 64.7169C245.258 63.0818 247.904 61.6699 250.744 60.7257C252.669 60.0859 254.661 59.6566 256.688 59.3343C259.211 58.9332 261.718 59.1261 264.228 59.1116C265.465 59.1044 266.707 59.4137 267.941 59.6181C269.279 59.8398 270.61 60.1053 271.944 60.3535C272.099 60.3822 272.253 60.4134 272.403 60.4596C275.808 61.5092 279.222 62.5315 282.5 63.945C282.635 64.003 282.728 64.1556 282.805 64.4492C280.348 65.1826 277.879 65.519 275.405 66.2101C275.617 66.9602 276.162 67.313 276.621 67.6962C278.144 68.9678 279.714 70.1832 281.236 71.4554C283.441 73.2981 285.613 75.1804 287.819 77.0229C288.172 77.3179 288.624 77.494 289.024 77.8512C289.214 79.1577 289.409 80.3383 289.608 81.5183C289.833 82.8528 290.039 84.1914 290.303 85.5181C290.376 85.8796 290.293 86.391 290.972 86.5387C293.06 86.1746 295.016 85.7978 297.082 85.4721C297.365 85.6374 297.566 85.7235 297.704 85.8695C300.009 88.3073 302.298 90.7598 304.608 93.1929C305.584 94.2208 306.596 95.2146 307.599 96.217C307.928 96.5458 308.278 96.8529 308.631 97.1811C308.802 97.038 308.953 96.9624 309.028 96.8398C309.462 96.123 309.832 95.3627 310.312 94.6795C310.879 93.8724 311.138 92.8586 311.957 92.2234C312.146 92.3019 312.392 92.331 312.51 92.4698C312.71 92.7049 312.84 93.0034 312.979 93.2854C313.838 95.0278 314.596 96.8086 315.228 98.6507C316.13 101.277 317.031 103.902 317.749 106.585C318.06 107.746 318.338 108.916 318.591 110.09C318.909 111.57 319.2 113.056 319.476 114.545C319.609 115.262 319.693 115.99 319.781 116.715C319.927 117.907 320.029 119.105 320.205 120.292C320.444 121.904 320.379 123.544 320.59 125.138C320.77 126.504 320.812 127.852 320.822 129.21C320.844 132.315 320.84 135.42 320.819 138.524C320.815 139.146 320.675 139.766 320.619 140.389C320.568 140.963 320.539 141.539 320.515 142.115C320.469 143.211 320.643 144.32 320.249 145.396C320.145 145.678 320.205 146.021 320.198 146.336C320.184 147.017 320.261 147.705 319.964 148.356C319.901 148.494 319.906 148.665 319.892 148.821C319.78 150.123 319.687 151.426 319.553 152.725C319.478 153.452 319.344 154.172 319.225 154.893C318.912 156.799 318.641 158.713 318.262 160.605C317.75 163.167 317.148 165.711 316.597 168.265C316.41 169.131 316.26 170.006 315.982 170.986C315.432 170.918 314.997 170.734 314.555 170.566C310.334 168.959 305.984 168.489 301.561 169.381C294.736 170.757 289.409 174.394 285.691 180.316C282.595 185.248 281.73 190.66 282.415 196.349C282.744 199.076 283.684 201.645 285.002 204.07C287.683 209.003 291.594 212.577 296.763 214.774C297.146 214.937 297.51 215.144 297.883 215.331C296.883 215.743 296.488 216.734 295.871 217.495C294.749 218.878 293.565 220.206 292.423 221.569C289.713 224.803 286.58 227.615 283.629 230.606C282.124 232.131 280.489 233.533 278.806 234.871C277.414 235.979 276.098 237.184 274.7 238.284C273.22 239.448 271.696 240.558 270.167 241.659C268.639 242.76 267.104 243.855 265.53 244.889C264.085 245.839 262.587 246.708 261.108 247.607C257.29 249.926 253.371 252.063 249.326 253.959C246.429 255.317 243.519 256.659 240.552 257.854C237.344 259.146 234.088 260.332 230.808 261.433C226.687 262.816 222.489 263.956 218.256 264.952C216.017 265.478 213.78 266.016 211.528 266.481C210.097 266.777 208.64 266.939 207.198 267.18C205.448 267.472 203.707 267.82 201.952 268.075C200.713 268.255 199.412 268.154 198.219 268.477C196.619 268.91 194.96 268.483 193.388 269.02C193.009 269.15 192.553 269.056 192.132 269.065C191.348 269.082 190.569 269.032 189.794 269.3C189.366 269.449 188.857 269.362 188.384 269.38C186.973 269.435 185.547 269.214 184.157 269.668C183.871 269.761 183.53 269.695 183.215 269.695C179.163 269.696 175.11 269.697 171.058 269.695C170.743 269.695 170.401 269.758 170.116 269.662C169.04 269.297 167.935 269.401 166.836 269.378C165.686 269.354 164.534 269.471 163.395 269.116C162.913 268.966 162.35 269.075 161.825 269.064C161.04 269.048 160.256 269.121 159.487 268.825C159.16 268.7 158.758 268.782 158.392 268.746C157.874 268.694 157.357 268.621 156.84 268.553C156.581 268.519 156.321 268.431 156.065 268.443C153.953 268.536 151.92 267.924 149.837 267.742C148.128 267.593 146.453 267.088 144.746 266.894C142.143 266.598 139.604 265.975 137.038 265.501C134.265 264.988 131.537 264.223 128.803 263.516C125.354 262.624 121.923 261.664 118.544 260.531C116.01 259.682 113.447 258.91 110.943 257.979C107.996 256.882 105.093 255.666 102.182 254.473C100.15 253.64 98.1328 252.77 96.1191 251.893C95.5944 251.664 95.1247 251.31 94.6011 251.078C91.6298 249.763 88.8415 248.097 85.9624 246.607C82.652 244.892 79.5108 242.898 76.389 240.89C73.6652 239.138 70.9527 237.343 68.3985 235.331C67.5001 234.623 66.5038 234.039 65.4353 233.258C65.318 232.752 65.3656 232.38 65.3092 232.024C65.0099 230.133 63.4421 228.87 61.5422 228.992C61.131 229.019 60.7264 229.148 60.3188 229.229C60.265 229.084 60.2542 228.888 60.1511 228.802C56.6793 225.902 53.5425 222.652 50.3452 219.465C48.8589 217.983 47.5307 216.366 46.2121 214.738C45.5538 213.925 44.7672 213.234 44.1528 212.365C42.9769 210.7 41.633 209.155 40.4457 207.498C38.9205 205.369 37.4675 203.188 36.0117 201.01C35.5176 200.271 35.0706 199.494 34.6696 198.701C33.8665 197.111 32.7388 195.692 32.2181 193.768C32.504 193.259 32.7613 192.953 33.0602 192.598C32.2542 191.695 31.503 190.849 30.7466 190.008C30.4275 189.653 30.0972 189.814 29.7719 190.007C29.6543 189.552 29.6104 189.061 29.4064 188.65C28.496 186.814 27.8571 184.866 27.0374 182.997C25.8558 180.301 24.9172 177.52 24.0122 174.732C22.9788 171.548 22.1435 168.301 21.1914 165.09C20.4473 162.581 19.9635 160.012 19.4133 157.46C19.1855 156.404 18.8606 155.326 19.1374 154.085C19.9621 154.038 20.637 154.095 21.3052 154.197C23.1197 154.472 24.9283 154.466 26.7431 154.188C27.3574 154.094 27.9866 154.097 28.6381 154.197C28.7224 154.755 28.7571 155.176 28.8356 155.589C29.9965 161.69 31.5634 167.686 33.6271 173.545C37.6351 184.924 43.0902 195.562 50.0697 205.41C51.3468 207.211 52.674 208.978 53.8873 210.828C53.5086 211.306 53.1489 211.683 53.121 212.309C54.1053 212.968 55.0789 213.63 56.0655 214.271C56.3326 214.445 56.5426 214.221 56.809 214.172C57.2555 214.694 57.6512 215.117 58.0298 215.554C61.6515 219.737 65.5714 223.618 69.7347 227.263C77.4116 233.983 85.8023 239.656 94.8004 244.443C104.638 249.676 114.972 253.654 125.714 256.591C131.447 258.159 137.249 259.41 143.134 260.254C145.734 260.627 148.349 260.893 150.951 261.252C154.656 261.762 158.389 261.919 162.115 262.048C169.113 262.292 176.103 262.085 183.059 261.206C185.717 260.87 188.388 260.584 191.02 260.1C197.225 258.96 203.383 257.602 209.431 255.788C216.097 253.788 222.58 251.338 228.653 247.898C233.723 245.026 238.354 241.604 242.135 237.112C246.873 231.482 249.423 225.004 249.764 217.513C249.784 217.269 249.763 217.156 249.794 217.061C250.391 215.241 249.967 213.438 249.704 211.635C249.685 211.502 249.524 211.39 249.427 211.138C249.14 208.494 248.573 206.036 247.798 203.636C244.636 193.843 239.082 185.62 231.343 178.865C230.4 178.041 229.333 177.359 228.317 176.479C227.988 174.602 227.656 172.859 227.345 171.112C227.189 170.239 227.065 169.361 226.935 168.483C226.652 166.574 226.364 164.667 226.1 162.755C225.951 161.669 225.892 160.569 225.713 159.489C225.438 157.839 225.293 156.178 225.128 154.517C225.009 153.321 224.827 152.136 224.789 150.928C224.758 149.942 224.541 148.962 224.418 147.979C224.236 146.53 224.055 145.081 223.892 143.63C223.751 142.384 223.659 141.133 223.5 139.889C223.388 139.012 223.252 138.131 223.035 137.276C222.534 135.303 222.327 133.248 221.416 131.389C220.569 128.044 218.918 125.063 217.193 122.121C215.595 119.395 213.451 117.084 211.423 114.687C211.289 114.527 211.128 114.387 210.968 114.252C209.768 113.241 208.573 112.224 207.361 111.228C206.268 110.331 205.129 109.503 203.921 108.756C202.093 107.625 200.18 106.657 198.267 105.694C197.198 105.155 196.077 104.688 194.933 104.345C194.225 104.133 193.544 103.89 192.87 103.47C192.018 99.9181 190.688 96.673 188.98 93.5884C188.198 92.1767 187.508 90.6916 186.335 89.3683C186.322 87.0193 186.282 84.8258 186.322 82.6339C186.352 80.9559 186.277 79.3067 185.677 77.7182ZM256.37 72.5316C255.977 72.2784 255.61 71.9582 255.184 71.784C253.74 71.1929 252.051 71.6892 251.105 72.9298C250.205 74.1106 250.159 75.8099 250.992 77.0443C251.844 78.3058 253.408 78.8913 254.842 78.486C256.373 78.0532 257.405 76.7187 257.438 75.1363C257.457 74.203 257.147 73.395 256.37 72.5316ZM242.127 173.205C241.749 173.304 241.703 173.616 241.663 173.93C241.558 174.754 241.444 175.578 241.359 176.404C241.328 176.696 241.37 176.996 241.382 177.38C241.92 177.425 242.363 177.462 242.781 177.497C243.241 176.093 243.414 174.554 243.248 173.404C242.97 173.342 242.67 173.275 242.127 173.205ZM261.853 113.34C261.545 113.695 261.225 114.041 260.933 114.408C260.617 114.805 260.145 115.096 260.027 115.644C260.36 116.091 260.643 116.528 261.281 116.558C262.125 115.587 263.146 114.776 263.816 113.633C263.402 113.225 263.193 112.698 262.405 112.624C262.306 112.763 262.153 112.976 261.853 113.34ZM251.712 127.144C251.405 127.742 251.097 128.34 250.798 128.922C251.156 129.429 251.558 129.714 252.24 129.75C252.857 128.663 253.491 127.546 254.165 126.36C253.678 126.008 253.369 125.582 252.712 125.533C252.427 125.986 252.125 126.467 251.712 127.144ZM246.915 140.675C246.134 140.619 246.106 140.611 245.962 141.112C245.715 141.966 245.497 142.828 245.29 143.692C245.221 143.977 245.224 144.28 245.186 144.655C245.71 144.762 246.153 144.852 246.685 144.961C247.019 143.711 247.334 142.56 247.632 141.405C247.739 140.993 247.44 140.86 246.915 140.675ZM245.602 151.071C245.585 150.352 245.977 149.659 245.786 148.886C245.503 148.81 245.259 148.73 245.008 148.68C244.81 148.641 244.606 148.638 244.343 148.614C243.948 149.908 243.809 151.196 243.713 152.491C243.707 152.573 243.806 152.664 243.896 152.821C244.301 152.855 244.751 152.893 245.244 152.934C245.363 152.338 245.465 151.831 245.602 151.071ZM272.84 105.372C273.721 104.582 274.757 103.962 275.564 103.001C275.188 102.55 275.037 102.022 274.429 101.82C273.467 102.676 272.285 103.279 271.532 104.382C271.842 104.864 271.993 105.411 272.84 105.372ZM249.729 135.315C249.896 134.679 250.376 134.135 250.343 133.358C249.916 133.152 249.509 132.955 249 132.709C248.708 133.348 248.425 133.898 248.205 134.471C247.965 135.098 247.777 135.744 247.583 136.387C247.559 136.467 247.641 136.579 247.706 136.77C248.07 136.896 248.49 137.043 248.974 137.212C249.223 136.587 249.433 136.062 249.729 135.315ZM279.038 98.3101C278.637 98.6351 278.235 98.96 277.813 99.3018C277.917 99.5595 277.964 99.7662 278.075 99.9312C278.245 100.186 278.458 100.412 278.687 100.692C279.813 99.9524 280.9 99.2547 281.853 98.3637C281.653 97.8088 281.425 97.3572 280.901 97.0192C280.332 97.4119 279.776 97.7944 279.038 98.3101ZM43.0812 204.604C43.2974 204.765 43.5407 204.932 43.7649 204.668C44.0294 204.358 44.244 204.005 44.5347 203.594C44.0256 203.132 43.5804 202.696 43.102 202.302C42.5899 201.879 42.1401 201.358 41.4245 201.082C41.1012 201.456 40.8032 201.8 40.4713 202.184C41.21 203.107 42.0774 203.774 43.0812 204.604ZM240.094 183.366C240.047 183.983 239.67 184.553 239.799 185.284C240.239 185.419 240.666 185.55 241.169 185.704C241.682 184.343 242.013 183.053 242.133 181.721C241.612 181.374 241.15 181.192 240.56 181.445C240.429 182.002 240.297 182.561 240.094 183.366ZM242.688 169.261C243.04 169.246 243.391 169.231 243.768 169.216C244.053 167.87 244.12 166.589 244.048 165.312C243.249 165.023 243.249 165.03 242.51 165.239C242.282 166.386 242.231 167.574 242.238 168.765C242.239 168.902 242.362 169.038 242.688 169.261ZM258.563 119.858C258.353 119.278 257.93 118.961 257.336 118.767C256.498 119.851 255.608 120.804 255.05 122.104C255.446 122.396 255.81 122.664 256.233 122.976C257.123 122.038 257.747 121.006 258.563 119.858ZM268.002 109.656C268.461 109.162 269.071 108.805 269.388 108.169C269.164 107.668 268.917 107.225 268.287 107.049C267.702 107.578 267.112 108.093 266.544 108.63C266.205 108.95 265.9 109.304 265.575 109.647C265.791 110.213 266.104 110.596 266.651 110.834C267.052 110.489 267.446 110.151 268.002 109.656ZM244.583 160.118C244.629 159.173 244.68 158.229 244.716 157.285C244.719 157.201 244.618 157.114 244.553 157.008C244.129 156.844 243.694 156.644 243.207 156.998C242.941 158.263 242.831 159.554 242.873 160.952C243.323 160.998 243.674 161.067 244.023 161.06C244.43 161.052 244.48 160.702 244.583 160.118ZM36.0257 198.141C36.5253 198.588 36.9136 199.168 37.5535 199.491C38.0452 199.184 38.4026 198.839 38.543 198.231C38.1023 197.783 37.6762 197.323 37.2212 196.894C36.7391 196.439 36.3517 195.862 35.6538 195.535C35.3103 195.922 35.009 196.263 34.6377 196.682C35.0843 197.155 35.4752 197.568 36.0257 198.141ZM46.9127 207.721C47.3635 208.077 47.8069 208.444 48.2673 208.788C48.756 209.153 49.1961 209.61 49.7938 209.746C50.4174 209.093 50.4064 209.087 50.5222 208.346C49.5722 207.6 48.6848 206.724 47.5585 206.2C46.9443 206.85 46.953 206.856 46.9127 207.721Z" fill="#F7F7FF"/>
<path d="M19.2684 106.738C19.2047 105.292 19.7082 103.949 20.1015 102.602C20.8063 100.187 21.6062 97.8003 22.3859 95.4083C23.0691 93.3123 23.8944 91.2724 24.8465 89.2825C25.2309 88.4791 25.5055 87.62 25.9253 86.8372C27.5855 83.7413 29.2263 80.6271 31.2643 77.7587C32.4745 76.0555 33.7013 74.3652 35.0433 72.7473C37.0579 70.3188 39.162 67.9879 41.4447 65.8207C42.5036 64.8153 43.7312 63.989 44.8081 63.0006C45.8548 62.0399 46.9695 61.1806 48.1237 60.3606C50.5979 58.6026 53.041 56.8031 55.7863 55.4632C57.3896 54.6806 58.9488 53.8077 60.5286 52.977C64.2117 51.0401 68.1172 49.6568 72.0598 48.3725C74.8978 47.4481 77.755 46.5722 80.6718 45.9385C83.1696 45.3959 85.6733 44.8721 88.2111 44.5154C89.7608 44.2977 91.297 44.0128 92.8633 43.8882C94.2113 43.781 95.5408 43.453 96.8882 43.3232C97.8789 43.2278 98.8853 43.2977 99.8846 43.2887C100.565 43.2825 101.239 43.3112 101.91 43.0752C102.291 42.9413 102.74 42.9804 103.158 42.978C104.789 42.9689 106.42 42.9558 108.05 42.9844C108.62 42.9943 109.186 43.1365 109.756 43.1889C110.329 43.2416 110.906 43.2661 111.482 43.2878C112.578 43.3292 113.692 43.151 114.758 43.567C114.852 43.6036 114.966 43.5968 115.071 43.5971C117.384 43.6022 119.622 44.201 121.898 44.4478C123.416 44.6124 124.851 45.129 126.376 45.2202C127.307 45.2759 128.175 45.7235 129.112 45.8954C130.545 46.1584 131.936 46.6542 133.342 47.0604C134.499 47.3949 135.674 47.6839 136.804 48.0964C139.511 49.0851 142.202 50.1199 144.888 51.1648C146.645 51.8482 148.351 52.6448 150.012 53.5444C151.618 54.4138 153.29 55.1607 154.907 56.0105C157.878 57.5718 160.827 59.1692 163.591 61.0931C165.397 62.3501 167.308 63.4564 169.121 64.7033C171.277 66.1857 173.384 67.7385 175.501 69.2763C176.601 70.0756 177.685 70.8983 178.759 71.7334C178.992 71.9151 179.149 72.1949 179.207 72.5427C178.552 72.6532 178.028 72.6806 177.51 72.6422C176.007 72.5307 174.626 72.8936 173.313 73.6077C172.861 73.8536 172.362 74.015 171.823 74.1236C171.369 73.6847 170.998 73.3104 170.583 72.9936C160.509 65.3061 149.331 59.8428 137.148 56.3992C131.16 54.7066 125.062 53.577 118.862 53.1585C114.141 52.8398 109.406 52.8603 104.674 53.3062C101.001 53.6524 97.3688 54.2223 93.7877 55.0583C82.5891 57.6725 72.3392 62.4252 62.9017 68.9672C59.2204 71.519 55.7314 74.3141 52.4278 77.3345C49.5131 79.9993 46.7578 82.8213 44.2676 85.8965C41.4113 89.4236 38.8979 93.1796 36.7361 97.1653C34.9036 100.544 33.2768 104.02 31.956 107.664C27.9402 106.336 23.9554 106.058 19.8961 106.727C19.6918 106.76 19.4779 106.736 19.2684 106.738Z" fill="#F6F6FF"/>
<path d="M298 215.338C297.51 215.144 297.146 214.937 296.763 214.774C291.594 212.577 287.683 209.003 285.002 204.07C283.684 201.645 282.744 199.076 282.415 196.349C281.729 190.66 282.595 185.248 285.691 180.316C289.409 174.394 294.736 170.757 301.561 169.381C305.984 168.489 310.334 168.959 314.555 170.566C314.997 170.734 315.432 170.918 315.982 171.114C316.267 171.251 316.43 171.388 316.615 171.482C323.198 174.825 327.455 180.104 329.12 187.251C330.878 194.795 329.353 201.748 324.449 207.85C320.808 212.38 316.054 215.097 310.399 216.234C306.515 217.015 302.663 216.703 298.876 215.558C298.625 215.483 298.371 215.416 298 215.338ZM301.313 207.307C301.402 207.375 301.491 207.443 301.727 207.608C301.975 207.665 302.248 207.674 302.467 207.787C303.151 208.136 303.881 208.116 304.616 208.17C306.122 208.28 308.072 206.914 308.428 204.819C308.735 203.019 307.672 201.242 305.89 200.596C305.496 200.453 305.094 200.331 304.511 200.039C303.233 199.778 301.994 199.833 300.875 200.577C300.127 201.075 299.31 201.637 299.117 202.527C298.809 203.94 298.93 205.358 299.911 206.563C300.267 206.999 300.687 207.27 301.256 207.171C301.256 207.171 301.252 207.148 301.313 207.307ZM312.448 177.956C312.402 177.825 312.38 177.598 312.305 177.579C311.7 177.425 311.088 177.292 310.473 177.186C309.293 176.983 308.111 176.791 306.928 176.613C306.001 176.473 305.073 176.324 304.139 176.25C303.55 176.203 303.281 176.49 303.197 177.068C303.175 177.222 303.176 177.381 303.167 177.538C303.047 179.57 302.929 181.602 302.807 183.634C302.795 183.842 302.757 184.048 302.731 184.256C302.661 184.824 302.566 185.39 302.525 185.96C302.395 187.782 302.286 189.605 302.165 191.427C302.154 191.583 302.101 191.735 302.085 191.89C301.937 193.39 301.792 194.89 301.652 196.39C301.647 196.434 301.697 196.482 301.77 196.619C302.005 196.658 302.302 196.709 302.87 196.811C304.985 197.309 307.174 197.576 307.97 197.424C308.026 197.298 308.115 197.163 308.149 197.015C309.502 191.132 310.852 185.247 312.191 179.36C312.283 178.954 312.279 178.526 312.448 177.956Z" fill="#FFCD53"/>
<path d="M19.154 106.78C19.4778 106.736 19.6917 106.76 19.896 106.727C23.9553 106.058 27.9401 106.336 32.0646 107.722C33.3381 108.311 34.3925 108.83 35.4264 109.46C35.1525 110.084 34.9109 110.602 34.6437 111.107C32.1586 115.802 30.0244 120.641 28.4498 125.727C27.3475 129.287 26.5003 132.903 25.708 136.498C21.4802 132.063 16.8206 128.357 11.5563 125.404C10.3298 124.716 9.23011 124.503 7.93928 125.41C6.83438 125.569 6.63353 126.383 6.44075 127.135C6.26034 127.838 6.55551 128.493 7.01595 129.012C7.28341 129.314 7.67917 129.518 8.04533 129.714C11.7633 131.697 15.1517 134.161 18.2934 136.945C20.3319 138.751 22.2155 140.733 23.8217 142.954C24.2959 143.609 24.8918 144.162 25.7055 144.281C26.6339 144.417 27.6036 144.523 28.472 143.698C29.9036 143.044 30.5234 141.989 30.6407 140.557C30.7217 139.567 30.8664 138.58 31.0316 137.6C31.5714 134.399 32.2394 131.226 33.1587 128.109C34.7202 122.814 36.787 117.729 39.4326 112.882C39.5307 112.702 39.6812 112.551 39.901 112.438C40.1493 112.633 40.3088 112.77 40.4579 112.918C46.9471 119.355 49.4058 127.115 47.2621 135.967C45.0866 144.95 39.2517 150.759 30.3906 153.479C29.794 153.662 29.2027 153.863 28.6089 154.056C27.9866 154.097 27.3574 154.094 26.7431 154.188C24.9282 154.466 23.1196 154.472 21.3052 154.197C20.637 154.095 19.9621 154.039 19.1543 153.938C17.8688 153.554 16.7081 153.225 15.5724 152.825C13.8833 152.229 12.3082 151.393 10.7667 150.367C10.2918 150.456 9.79186 150.549 9.33693 150.634C9.20388 150.52 9.07333 150.464 9.05638 150.385C8.78009 149.089 7.92306 148.214 7.02114 147.309C3.31563 143.591 1.06692 139.126 0.28159 133.916C-0.50393 128.704 0.360682 123.793 2.79173 119.136C3.03282 118.674 3.22726 118.188 3.56358 117.556C4.32715 116.886 4.71814 116.202 5.01002 115.45C5.37986 115.084 5.76787 114.735 6.11671 114.35C9.5147 110.602 13.6553 108.113 18.5927 106.968C18.7448 106.932 18.8908 106.871 19.154 106.78Z" fill="#FFCD53"/>
<path d="M289.031 77.7251C288.624 77.494 288.172 77.3179 287.819 77.0229C285.614 75.1804 283.441 73.2981 281.236 71.4555C279.714 70.1832 278.144 68.9679 276.621 67.6962C276.162 67.313 275.617 66.9602 275.405 66.2101C277.879 65.519 280.348 65.1826 282.855 64.5505C283.924 64.3268 284.916 64.2334 285.888 64.0389C290.449 63.1258 295.007 62.1939 299.563 61.251C303.351 60.4669 307.13 59.638 310.92 58.8665C314.352 58.1679 317.796 57.525 321.232 56.8468C322.155 56.6646 323.069 56.4342 323.99 56.2415C326.957 55.6212 329.925 55.0013 332.896 54.4016C333.236 54.3328 333.603 54.3923 334.065 54.3923C333.992 54.7672 334.007 55.0442 333.89 55.243C332.904 56.9137 331.889 58.5679 330.89 60.2313C329.189 63.0635 327.491 65.8974 325.796 68.7332C323.563 72.469 321.336 76.2086 319.103 79.9443C316.842 83.7252 314.576 87.5025 312.318 91.2848C312.184 91.508 312.102 91.7619 311.977 92.1125C311.138 92.8586 310.879 93.8725 310.312 94.6795C309.832 95.3627 309.462 96.123 309.028 96.8398C308.954 96.9624 308.802 97.038 308.631 97.1811C308.278 96.8529 307.928 96.5459 307.599 96.217C306.596 95.2146 305.584 94.2209 304.608 93.1929C302.298 90.7598 300.009 88.3073 297.704 85.8695C297.566 85.7235 297.365 85.6374 297.1 85.3817C296.871 85.0318 296.76 84.8009 296.595 84.6197C295.934 83.8937 295.257 83.1831 294.645 82.3765C295.599 81.6467 296.491 81.0031 297.39 80.3686C299.53 78.8574 301.675 77.3538 303.813 75.8414C309.545 71.7884 315.274 67.7317 321.006 63.6779C323.786 61.7116 326.572 59.7533 329.345 57.7773C329.634 57.5712 329.855 57.2697 330.187 56.9785C330.374 56.903 330.482 56.8616 330.695 56.7963C331.403 56.4434 332.022 56.1334 332.488 55.4466C331.326 55.6473 331.295 55.6619 330.172 56.4996C330.012 56.5931 329.935 56.6639 329.763 56.771C329.173 57.0056 328.685 57.2007 328.22 57.441C326.072 58.551 323.933 59.6766 321.788 60.791C315.913 63.8438 310.034 66.8901 304.16 69.9462C299.731 72.2502 295.31 74.5686 290.881 76.8711C290.279 77.1841 289.648 77.4418 289.031 77.7251ZM332.938 55.1211L332.994 55.1496C332.994 55.1496 332.984 55.0928 332.938 55.1211Z" fill="#FFE9B8"/>
<path d="M171.885 74.215C172.362 74.015 172.86 73.8536 173.313 73.6077C174.626 72.8936 176.007 72.5307 177.51 72.6421C178.028 72.6806 178.552 72.6532 179.22 72.6518C179.555 72.7352 179.736 72.846 179.933 72.9063C182.455 73.6798 184.225 75.3436 185.593 77.6539C186.277 79.3067 186.352 80.9559 186.322 82.6338C186.282 84.8258 186.322 87.0193 186.337 89.504C186.332 91.551 186.319 93.3062 186.211 95.1087C185.145 96.0323 184.261 96.9903 183.047 97.5923C181.269 98.4738 179.418 99.0498 177.454 98.8102C175.802 98.6089 174.151 98.3108 172.561 97.7197C171.502 97.3257 170.594 96.7557 169.738 96.0509C169.421 95.7893 169.06 95.5802 168.696 95.2037C168.647 90.5618 168.657 86.0628 168.58 81.5653C168.535 78.937 169.552 76.8027 171.298 74.9368C171.51 74.711 171.69 74.4563 171.885 74.215ZM170.565 77.6886C169.802 79.437 170.388 81.0082 171.367 82.4139C172.353 83.8316 173.794 84.4012 175.579 84.3802C177.598 84.3564 179.047 83.4104 179.953 81.8041C181.694 78.7174 180.046 75.4374 176.932 74.3261C176.787 74.2743 176.626 74.2571 176.47 74.2448C173.831 74.0365 171.746 74.7418 170.565 77.6886Z" fill="#CDCDFF"/>
<path d="M48.8001 11.8371C47.7028 14.952 45.6379 16.8857 42.5865 17.7266C37.8147 19.0415 32.7946 16.0238 31.6791 11.2041C30.6194 6.62581 33.2372 1.94413 37.7268 0.669199C44.8231 -1.34598 50.3547 4.8652 49.0321 10.9544C48.9764 11.2108 48.9084 11.4645 48.8001 11.8371ZM42.5358 3.96544C41.8743 3.81531 41.214 3.54371 40.551 3.53696C38.2014 3.51305 36.3993 4.53208 35.3268 6.65211C34.2465 8.78752 34.5124 10.8741 35.9943 12.6886C37.4256 14.4413 39.3393 15.1446 41.6123 14.6C43.6732 14.1062 45.0963 12.8272 45.6772 10.8298C46.2851 8.73962 45.9077 6.759 44.2671 5.18267C43.8204 4.75349 43.2621 4.44055 42.5358 3.96544Z" fill="#FAA837"/>
<path d="M263.909 30.5642C265.05 29.7751 266.185 29.3132 267.441 29.0144C270.863 28.1998 275.939 30.2343 277.097 35.3407C277.736 38.1602 277.156 40.8164 275.105 42.9505C272.857 45.2898 270.063 46.0033 266.892 45.3815C265.303 45.07 263.936 44.326 262.845 43.1874C261.868 42.1665 261.208 40.896 260.867 39.5035C259.993 35.9342 261.021 32.9856 263.909 30.5642ZM274.017 38.7654C274.069 38.191 274.149 37.6176 274.168 37.0421C274.262 34.3269 271.86 32.028 268.995 31.954C266.671 31.894 264.542 33.545 263.861 35.8756C263.209 38.107 264.142 40.5324 266.185 41.7331C267.284 42.379 268.444 42.7916 269.792 42.4944C271.805 42.0504 273.21 40.9574 274.017 38.7654Z" fill="#FFCF58"/>
<path d="M43.4354 241.968C45.8962 242.855 47.6478 244.374 48.597 246.686C51.0353 252.624 46.5058 258.269 41.0551 258.355C37.4613 258.412 33.6031 255.982 32.7035 251.794C31.4359 245.893 36.2051 241.547 40.6693 241.593C41.5713 241.602 42.4465 241.703 43.4354 241.968ZM45.6687 252.245C45.7385 252.047 45.8118 251.85 45.8777 251.65C47.0816 248.004 44.2682 244.444 40.4998 244.706C37.8286 244.892 35.7672 247.06 35.6192 249.779C35.4634 252.641 37.8021 255 40.2837 255.199C42.6089 255.385 44.3707 254.479 45.6687 252.245Z" fill="#FFCF58"/>
<path d="M311.424 239.004C311.341 238.62 311.276 238.376 311.2 238.095C309.084 237.923 307.118 238.747 305.057 238.717C304.612 238.006 304.7 237.287 304.74 236.509C306.702 235.875 308.791 236.008 310.783 235.378C310.867 233.496 310.272 231.718 310.205 229.855C311.022 229.506 311.854 229.545 312.725 229.411C313.24 231.234 313.222 233.09 313.702 234.922C315.825 235.114 317.833 234.181 319.969 234.384C320.254 235.053 320.233 235.724 320.332 236.418C319.328 237.014 318.222 236.791 317.219 237.051C316.267 237.298 315.267 237.358 314.219 237.511C313.965 239.444 314.731 241.201 314.694 243.068C313.952 243.611 313.114 243.467 312.243 243.466C311.701 242.057 311.801 240.555 311.424 239.004Z" fill="#FFCF58"/>
<path d="M58.8986 41.1592C58.6739 39.5317 58.481 38.0319 58.2847 36.5055C59.0908 36.1507 59.8436 36.0089 60.7019 36.0848C61.2297 36.9027 61.1576 37.8655 61.2938 38.7808C61.4312 39.7045 61.6002 40.6235 61.7669 41.6134C63.8897 41.475 65.8868 41.0582 67.9474 40.8234C68.3074 41.5262 68.3761 42.237 68.449 43.0572C66.421 43.6594 64.3136 43.6673 62.2281 44.1225C62.0993 46.0703 62.8598 47.8339 62.7599 49.6938C62.0033 50.0658 61.2222 49.9734 60.3698 50.0323C60.2524 49.7105 60.103 49.4389 60.0575 49.1508C59.9101 48.218 59.8177 47.2766 59.6706 46.3437C59.5819 45.7816 59.431 45.2292 59.2956 44.6158C58.1793 44.5119 57.17 44.8613 56.1408 44.9417C55.1561 45.0186 54.1807 45.2147 53.1844 45.3609C52.6704 44.658 52.7578 43.9354 52.784 43.1566C53.3744 42.8884 53.9785 42.7697 54.6012 42.697C55.6436 42.5754 56.685 42.4433 57.7241 42.2964C58.0338 42.2526 58.3392 42.1591 58.6379 42.0619C59.0426 41.9302 58.9913 41.6055 58.8986 41.1592Z" fill="#FFCF58"/>
<path d="M232.722 50.7307C231.471 51.1952 230.352 51.6496 229.228 52.0907C228.896 52.2208 228.55 52.3131 228.174 52.4342C227.656 51.7459 227.34 51.0622 227.315 50.2337C228.766 49.2628 230.506 49.0249 231.925 48.0093C231.538 46.0617 230.357 44.4395 229.907 42.5285C230.483 42.0563 231.069 41.7641 231.834 41.7393C232.841 43.3512 233.244 45.2402 234.241 46.8665C235.221 46.9793 235.965 46.4081 236.781 46.0967C237.56 45.7993 238.332 45.4815 239.125 45.1658C239.728 45.8251 240.013 46.5185 240.042 47.3745C238.639 48.3565 236.919 48.6357 235.465 49.602C235.82 51.5325 237.015 53.1514 237.466 55.0514C236.947 55.5853 236.333 55.8108 235.575 55.926C235.384 55.5903 235.18 55.2951 235.04 54.9722C234.559 53.8632 234.11 52.7403 233.628 51.6318C233.465 51.2577 233.349 50.818 232.722 50.7307Z" fill="#FFCF58"/>
<path d="M19.3216 221.956C19.2881 221.5 19.3379 221.177 19.6857 221.047C20.0239 220.92 20.3803 220.818 20.7374 220.769C21.7741 220.63 22.8166 220.533 23.8541 220.398C24.3972 220.327 24.6792 219.951 24.6004 219.39C24.4694 218.459 24.3402 217.526 24.1457 216.607C23.9906 215.874 23.9752 215.156 24.0678 214.405C24.6482 213.889 25.4079 214.307 26.0224 213.716C26.3458 215.853 26.6261 217.705 26.9098 219.58C27.8173 220.032 28.6623 219.698 29.5302 219.549C30.349 219.408 31.1916 219.406 32.1423 219.334C32.2412 219.531 32.4501 219.784 32.4885 220.061C32.5521 220.518 32.5058 220.992 32.5058 221.53C30.9713 222.314 29.2581 221.922 27.6588 222.511C27.2607 223.055 27.4798 223.758 27.5047 224.416C27.5282 225.038 27.7016 225.653 27.7837 226.275C27.872 226.944 27.9309 227.617 28.0112 228.37C27.4336 228.819 26.7583 228.697 26.1166 228.533C25.9235 228.484 25.6969 228.173 25.664 227.955C25.5 226.869 25.3731 225.776 25.2793 224.682C25.2292 224.099 25.2155 223.526 24.6805 223.023C23.0683 222.713 21.4583 223.454 19.7349 223.393C19.6078 222.969 19.4745 222.524 19.3216 221.956Z" fill="#FFE9B8"/>
<path d="M19.6731 35.7604C19.0705 36.4475 18.4926 36.9312 17.6827 37.1449C16.0774 37.5682 14.3534 36.9724 13.5658 35.6471C12.6122 34.0425 12.7593 32.2878 13.9907 31.0413C14.3528 30.6748 14.7557 30.3081 15.2095 30.08C17.1359 29.1118 19.5485 30.5248 20.1679 32.1091C20.6851 33.4317 20.4668 34.55 19.6731 35.7604Z" fill="#FFE9B8"/>
<path d="M60.2155 229.273C60.7264 229.148 61.131 229.019 61.5422 228.992C63.4421 228.87 65.0099 230.133 65.3092 232.024C65.3656 232.38 65.318 232.752 65.3218 233.248C65.1574 233.705 65.0104 234.043 64.8183 234.354C63.8475 235.923 61.9354 236.481 60.2767 235.693C58.6364 234.913 57.8477 233.04 58.4821 231.315C58.79 230.478 59.2819 229.748 60.2155 229.273Z" fill="#FAA837"/>
<path d="M342.318 220.71C341.441 221.777 340.401 222.148 339.163 222.06C337.402 221.934 336.088 220.536 335.977 218.745C335.855 216.754 337.479 215.258 338.986 215.082C341.607 214.776 343.55 217.035 342.859 219.619C342.766 219.967 342.55 220.281 342.318 220.71Z" fill="#FAA734"/>
<path d="M2.98609 108.563C3.01563 107.55 2.91688 106.67 3.05279 105.83C3.8257 105.595 3.82578 105.592 4.66889 105.83C4.74065 107.074 4.73534 108.352 4.6576 109.658C4.15804 109.995 3.67256 109.958 3.10537 109.753C3.0665 109.411 3.02635 109.057 2.98609 108.563Z" fill="#FAAC41"/>
<path d="M17.4595 173.019C16.9845 172.021 16.562 171.129 16.147 170.252C16.4446 169.67 16.9524 169.547 17.5003 169.352C18.2619 170.421 18.6987 171.643 19.3139 172.886C19.023 173.112 18.7711 173.359 18.4742 173.526C18.0316 173.775 18.0181 173.751 17.4595 173.019Z" fill="#FAAC41"/>
<path d="M3.58437 92.4991C3.72066 91.3374 3.8451 90.3083 3.96766 89.2948C4.57219 89.022 5.05039 89.1123 5.57743 89.4343C5.61171 90.7172 5.33141 91.9811 5.2231 93.2044C4.78269 93.5798 4.36574 93.4561 3.96871 93.3699C3.57702 93.2849 3.55522 92.9589 3.58437 92.4991Z" fill="#FAAC41"/>
<path d="M11.4113 154.182C11.6567 154.24 11.8688 154.286 11.9088 154.395C12.3386 155.568 12.7907 156.736 13.0637 158.05C12.6025 158.231 12.1831 158.395 11.6936 158.586C10.9531 157.341 10.6905 156.018 10.2874 154.658C10.6521 154.492 10.9751 154.346 11.4113 154.182Z" fill="#FAAC41"/>
<path d="M13.1295 58.9052C13.4227 58.4749 13.6568 58.1427 13.9435 57.7358C14.3945 58.0478 14.7654 58.3043 15.1926 58.5997C14.6695 59.8639 13.9399 60.9329 13.2965 62.1205C12.7172 62.0575 12.344 61.7034 11.886 61.4057C12.0926 60.4769 12.6607 59.7774 13.1295 58.9052Z" fill="#FAAC41"/>
<path d="M45.7043 27.5105C45.9217 27.2107 46.127 26.9654 46.3887 26.8257C47.2579 26.3615 48.1474 25.9353 48.9949 25.5116C49.5937 25.8642 49.7094 26.3594 49.8199 26.9373C48.8017 27.681 47.6412 28.1382 46.5931 28.7151C45.989 28.5246 45.9198 28.0188 45.7043 27.5105Z" fill="#FAAC41"/>
<path d="M29.7215 190.08C30.0973 189.814 30.4275 189.653 30.7467 190.008C31.5031 190.849 32.2543 191.695 33.0603 192.598C32.7614 192.953 32.5041 193.259 32.1961 193.643C31.9532 193.662 31.6965 193.662 31.579 193.534C30.7716 192.656 29.9933 191.751 29.1653 190.809C29.3661 190.549 29.5185 190.351 29.7215 190.08Z" fill="#FAAC41"/>
<path d="M14.393 166.098C13.8784 164.869 13.3175 163.757 13.0054 162.524C13.4045 162.113 13.8531 161.922 14.4456 161.875C15.0596 163.03 15.4364 164.264 15.9465 165.519C15.5029 165.902 15.0991 166.269 14.393 166.098Z" fill="#FAAC41"/>
<path d="M86.1383 17.1138C86.6414 17.1139 87.0034 17.1139 87.3603 17.1139C87.7321 17.7279 87.6191 18.2586 87.372 18.8535C86.166 18.8535 84.9759 18.8535 83.7842 18.8535C83.3528 18.4039 83.5211 17.8803 83.5211 17.3364C84.3422 16.9329 85.187 17.1852 86.1383 17.1138Z" fill="#FAAC41"/>
<path d="M79.1093 17.386C79.3963 17.5078 79.6425 17.6023 79.6816 17.7512C79.7707 18.0901 79.7581 18.4556 79.7913 18.8647C78.5274 19.4732 77.2081 19.1254 75.9903 19.4579C75.7057 18.8484 75.6009 18.3648 75.7615 17.7494C76.8057 17.4281 77.8964 17.449 79.1093 17.386Z" fill="#FAAC41"/>
<path d="M117.638 24.8841C117.889 25.6284 117.451 26.0107 117.082 26.5115C116.166 25.9984 115.306 25.5218 114.452 25.0337C114.23 24.9064 114.028 24.743 113.726 24.5338C113.921 24.0572 114.108 23.6008 114.318 23.0881C115.045 23.233 115.547 23.6159 116.084 23.9052C116.589 24.1775 117.067 24.4999 117.638 24.8841Z" fill="#FAAC41"/>
<path d="M106.72 20.774C106.825 20.4786 106.902 20.2907 107.009 20.0321C108.321 20.2625 109.499 20.752 110.704 21.297C110.808 21.8865 110.559 22.3178 110.207 22.7916C109.912 22.7395 109.603 22.7226 109.32 22.6279C108.531 22.3636 107.752 22.0677 106.97 21.783C106.482 21.6054 106.584 21.2439 106.72 20.774Z" fill="#FAAC41"/>
<path d="M121.975 27.8203C122.827 28.4957 123.593 29.1061 124.389 29.7393C124.209 30.3295 123.901 30.7058 123.41 31.044C122.773 30.8018 122.31 30.3002 121.782 29.9071C121.289 29.5405 120.823 29.1382 120.276 28.6953C120.591 28.2147 120.863 27.8007 121.183 27.3129C121.471 27.4927 121.681 27.624 121.975 27.8203Z" fill="#FAAC41"/>
<path d="M133.781 39.007C134.463 39.7926 135.072 40.4985 135.676 41.1981C135.558 41.834 135.108 42.087 134.616 42.3932C133.554 41.6289 132.86 40.5312 131.971 39.5684C132.138 38.9829 132.532 38.6764 133.035 38.335C133.266 38.5379 133.487 38.7326 133.781 39.007Z" fill="#FAAC41"/>
<path d="M33.2949 35.5525C34.0826 34.9344 34.7842 34.3903 35.6767 33.698C35.8004 33.9243 35.8962 34.1135 36.0049 34.295C36.1637 34.5603 36.3319 34.8201 36.5327 35.1407C35.5403 36.0608 34.5573 36.8914 33.3974 37.6398C33.0622 37.2264 32.7753 36.8726 32.439 36.4579C32.7267 36.147 32.9678 35.8867 33.2949 35.5525Z" fill="#FAAC41"/>
<path d="M7.54674 77.278C7.08429 77.2014 6.73352 77.1025 6.30869 76.9827C6.24187 75.583 6.93986 74.3822 7.15462 73.1265C7.81621 72.8313 8.25515 73.0836 8.77721 73.4527C8.47882 74.7273 8.3108 76.0558 7.54674 77.278Z" fill="#FAAC41"/>
<path d="M6.16525 81.0568C6.68495 81.1873 6.93332 81.3907 6.84463 81.8564C6.64017 82.9299 6.44295 84.0048 6.24225 85.082C5.70589 85.4236 5.22612 85.2658 4.64917 85.0524C4.66709 84.7479 4.6597 84.4492 4.70634 84.1592C4.8554 83.2324 5.00761 82.3055 5.19273 81.3854C5.291 80.897 5.65952 80.8983 6.16525 81.0568Z" fill="#FAAC41"/>
<path d="M21.9839 46.6455C22.5716 45.9823 23.0877 45.4066 23.6224 44.8103C24.2341 45.0234 24.5567 45.3933 24.8608 45.9051C24.1213 46.9786 23.2304 47.9061 22.3651 48.8379C21.6806 48.5186 21.6752 48.5243 21.1306 47.8167C21.3799 47.4712 21.6461 47.1021 21.9839 46.6455Z" fill="#FAAC41"/>
<path d="M11.2597 65.6327C11.358 65.7702 11.3944 65.8233 11.3865 65.8687C11.1659 67.1504 10.5892 68.293 10.0377 69.5476C9.5385 69.3643 9.11937 69.2104 8.61768 69.0262C8.90286 67.5973 9.44342 66.3533 10.1427 65.0571C10.5414 65.245 10.8593 65.3948 11.2597 65.6327Z" fill="#FAAC41"/>
<path d="M16.9747 55.0527C16.6587 54.7941 16.4335 54.5947 16.1499 54.3435C16.8503 53.1818 17.6127 52.1514 18.4312 51.181C19.1499 51.436 19.155 51.4295 19.7558 52.0793C19.1513 53.1402 18.3931 54.1203 17.6217 55.0872C17.5456 55.1826 17.256 55.1077 16.9747 55.0527Z" fill="#FAAC41"/>
<path d="M92.5769 17.4043C93.54 17.487 94.362 17.5636 95.1256 17.6348C95.5094 18.2174 95.3589 18.7185 95.2321 19.3215C93.9636 19.3643 92.7027 19.2703 91.3804 19.022C91.3804 18.5262 91.3804 18.0782 91.3804 17.5312C91.7534 17.4842 92.0947 17.4412 92.5769 17.4043Z" fill="#FAAC41"/>
<path d="M62.5222 20.2731C63.0461 20.1433 63.4486 20.0444 63.8524 19.9452C64.4099 20.3795 64.3902 20.9366 64.3955 21.5886C63.2022 21.941 62.0589 22.2786 60.8866 22.6249C60.3567 22.2133 60.3029 21.6793 60.356 20.9976C61.035 20.7673 61.7179 20.5357 62.5222 20.2731Z" fill="#FAAC41"/>
<path d="M3.12671 99.9169C3.16464 99.0603 3.19104 98.3372 3.21632 97.6447C3.91168 97.3758 3.91168 97.3758 4.80299 97.5238C5.0636 98.8389 4.60982 100.144 4.76551 101.572C4.16891 101.603 3.72954 101.625 3.35288 101.645C2.91096 101.081 3.0961 100.556 3.12671 99.9169Z" fill="#FAAC41"/>
<path d="M54.3343 23.0937C55.0798 22.8194 55.6759 22.4731 56.3875 22.4017C56.8623 22.7825 56.9165 23.2896 56.9852 23.9066C55.8673 24.4498 54.7066 24.88 53.5229 25.305C53.0239 24.9223 52.9689 24.4039 52.8545 23.9164C53.2031 23.4209 53.7658 23.3715 54.3343 23.0937Z" fill="#FAAC41"/>
<path d="M41.3938 29.7145C42.2443 29.3669 42.2873 29.3619 42.5408 29.7629C42.7035 30.0203 42.822 30.3056 42.9922 30.6414C41.9997 31.557 40.8713 32.1626 39.782 32.8353C39.2643 32.492 39.0561 32.0368 38.8938 31.4922C39.5862 30.7609 40.5001 30.3484 41.3938 29.7145Z" fill="#FAAC41"/>
<path d="M127.006 32.9093C127.256 32.7784 127.524 32.625 127.608 32.6944C128.572 33.4846 129.448 34.3665 130.343 35.3554C129.975 35.7574 129.671 36.0902 129.315 36.4793C128.199 35.6716 127.307 34.7533 126.372 33.7631C126.582 33.4767 126.76 33.2335 127.006 32.9093Z" fill="#FAA837"/>
<path d="M99.1147 19.071C99.1745 18.5203 99.3817 18.2816 99.8402 18.3377C100.201 18.3818 100.564 18.4137 100.92 18.483C101.629 18.621 102.333 18.7811 102.995 18.9226C103.334 19.5369 103.073 19.9923 102.829 20.5075C101.63 20.6182 100.492 20.2121 99.3362 19.9848C98.9473 19.9082 99.0389 19.502 99.1147 19.071Z" fill="#FAAC41"/>
<path d="M71.9998 19.2633C72.0227 19.6762 71.9571 19.9698 71.6651 20.02C70.5416 20.213 69.4434 20.6032 68.1707 20.5362C68.0705 20.0772 67.9748 19.6393 67.8855 19.2302C68.9733 18.6456 70.3411 18.3679 71.7834 18.4244C71.8479 18.6455 71.9188 18.8881 71.9998 19.2633Z" fill="#FAAC41"/>
<path d="M21.9957 177.906C22.4251 178.631 22.7864 179.26 23.1944 179.971C22.8177 180.298 22.4772 180.595 22.177 180.856C21.9809 180.788 21.8487 180.784 21.7983 180.718C21.0332 179.716 20.4224 178.625 19.8433 177.414C20.2513 177.104 20.6135 176.828 20.9332 176.585C21.6558 176.764 21.6605 177.387 21.9957 177.906Z" fill="#FAAC41"/>
<path d="M26.8983 185.329C27.2196 185.806 27.4706 186.196 27.7663 186.655C27.4218 186.978 27.0878 187.291 26.706 187.649C25.6671 186.712 24.9784 185.613 24.2476 184.473C24.3441 184.285 24.41 184.086 24.5317 183.931C24.9814 183.358 25.3394 183.337 25.7811 183.87C26.1476 184.312 26.4804 184.783 26.8983 185.329Z" fill="#FAAC41"/>
<path d="M27.5116 42.8769C27.1273 42.5435 26.8469 42.2397 26.533 41.8997C27.3119 40.7606 28.3437 39.9835 29.4044 39.0747C29.7592 39.4472 30.0667 39.7701 30.4333 40.155C29.6064 41.2683 28.6118 42.0883 27.5116 42.8769Z" fill="#FAA837"/>
<path d="M4.99323 115.318C4.71809 116.202 4.32709 116.886 3.59022 117.444C3.231 116.411 3.23285 115.314 3.23966 114.21C3.69349 113.778 4.18179 113.794 4.78081 113.98C4.84497 114.375 4.91073 114.78 4.99323 115.318Z" fill="#FAA837"/>
<path d="M137.404 45.1716C137.723 44.9135 137.965 44.7311 138.192 44.5601C139.269 45.4532 139.278 45.4647 139.874 46.7091C139.492 47.0167 139.095 47.3359 138.623 47.7159C137.956 47.0625 137.494 46.3517 137.206 45.525C137.181 45.4551 137.284 45.341 137.404 45.1716Z" fill="#FAAC41"/>
<path d="M171.823 74.1236C171.69 74.4563 171.51 74.711 171.299 74.9368C169.552 76.8027 168.535 78.9371 168.58 81.5653C168.657 86.0628 168.647 90.5618 168.667 95.3535C168.658 97.7775 168.658 99.9082 168.542 102.084C168.278 102.179 168.132 102.248 167.978 102.275C164.022 102.966 160.218 104.159 156.586 105.857C150.799 108.563 145.716 112.213 141.59 117.149C139.59 119.541 137.851 122.097 136.4 124.848C133.567 130.218 132.106 135.998 131.407 141.99C131.133 144.336 130.938 146.69 130.698 149.039C130.586 150.136 130.458 151.23 130.326 152.324C130.158 153.73 129.97 155.134 129.806 156.54C129.557 158.677 129.356 160.82 129.07 162.952C128.713 165.603 128.318 168.249 127.886 170.889C127.557 172.907 127.221 174.93 126.752 176.919C125.94 180.359 124.626 183.63 123.068 186.796C121.019 190.958 118.488 194.832 115.773 198.584C113.615 201.566 111.266 204.397 108.842 207.169C107.876 208.274 106.912 209.395 106.21 210.705C104.491 213.912 104.779 216.95 106.923 219.867C107.971 221.292 109.326 222.365 110.768 223.331C113.536 225.186 116.561 226.531 119.686 227.656C126.433 230.085 133.422 231.54 140.475 232.684C144.045 233.264 147.654 233.613 151.246 234.052C152.392 234.193 153.543 234.289 154.692 234.402C156.519 234.58 158.343 234.823 160.174 234.912C162.012 235.002 163.846 235.084 165.666 235.445C165.742 235.959 165.823 236.357 165.911 236.792C167.257 236.979 168.476 236.567 169.769 236.331C169.787 236.027 169.801 235.778 169.968 235.524C175.533 235.54 180.946 235.766 186.356 235.335C189.024 235.123 191.706 235.088 194.381 234.943C196.057 234.852 197.735 234.743 199.405 234.575C201.961 234.319 204.513 234.014 207.065 233.713C208.992 233.485 210.925 233.284 212.839 232.975C215.635 232.525 218.424 232.028 221.202 231.481C225.996 230.535 230.732 229.354 235.336 227.7C238.557 226.542 241.691 225.191 244.527 223.233C246.499 221.871 248.202 220.262 249.359 218.131C249.456 217.953 249.616 217.811 249.747 217.652C249.423 225.004 246.874 231.482 242.135 237.112C238.354 241.604 233.723 245.026 228.653 247.898C222.58 251.338 216.097 253.788 209.431 255.788C203.383 257.602 197.225 258.96 191.021 260.1C188.388 260.584 185.718 260.87 183.059 261.206C176.103 262.085 169.113 262.292 162.115 262.048C158.389 261.919 154.656 261.762 150.951 261.252C148.349 260.893 145.734 260.627 143.134 260.254C137.249 259.41 131.448 258.159 125.714 256.591C114.972 253.654 104.638 249.676 94.8005 244.443C85.8024 239.656 77.4116 233.983 69.7348 227.263C65.5715 223.618 61.6516 219.737 58.0299 215.554C57.6513 215.117 57.2556 214.694 56.8404 214.067C56.9188 213.591 57.0245 213.313 57.1561 212.966C56.0715 212.214 55.0248 211.487 53.9781 210.761C52.6741 208.978 51.3469 207.211 50.0698 205.41C43.0903 195.562 37.6352 184.924 33.6271 173.545C31.5635 167.686 29.9966 161.69 28.8357 155.589C28.7572 155.176 28.7225 154.755 28.6382 154.197C29.2028 153.863 29.7941 153.662 30.3907 153.479C39.2518 150.759 45.0867 144.95 47.2622 135.967C49.4059 127.115 46.9472 119.355 40.458 112.918C40.3089 112.77 40.1494 112.633 39.9205 112.334C42.1731 107.887 44.9766 103.924 48.0967 100.178C48.3964 99.818 48.7183 99.4613 48.9388 99.0538C49.4209 98.1627 49.2359 97.1675 48.5234 96.461C47.8908 95.8339 46.8735 95.6294 46.0635 96.0307C45.697 96.2123 45.3894 96.513 45.0044 96.7799C44.9 96.8521 44.8593 96.9128 44.8325 96.9717C44.8336 96.9612 44.8542 96.9566 44.7742 96.9876C44.6366 97.114 44.5788 97.2094 44.5216 97.2917C44.5222 97.2786 44.5483 97.2761 44.454 97.3033C44.2087 97.5354 44.0578 97.7402 43.9047 97.9336C43.9024 97.9221 43.9257 97.9192 43.8383 97.9713C43.5862 98.3084 43.4216 98.5933 43.2573 98.8676C43.2577 98.8571 43.2781 98.8522 43.1796 98.8693C42.9343 99.0971 42.7875 99.3077 42.6384 99.508C42.6361 99.4976 42.6572 99.4959 42.5658 99.5403C42.3094 99.8711 42.1444 100.157 41.9921 100.447C42.0046 100.45 42.0118 100.425 41.9106 100.456C41.4185 100.813 41.0701 101.165 41.0512 101.711C41.0507 101.702 41.0688 101.699 40.9623 101.713C40.4622 102.217 40.0461 102.69 39.6867 103.203C39.5494 103.399 39.5419 103.686 39.4743 103.922C39.4733 103.913 39.4911 103.911 39.3815 103.921C38.9712 104.175 38.7504 104.456 38.8425 104.869C38.8415 104.861 38.859 104.858 38.7504 104.861C37.6609 106.353 36.6799 107.843 35.6354 109.328C35.5719 109.324 35.447 109.349 35.447 109.349C34.3926 108.83 33.3382 108.311 32.1751 107.735C33.2768 104.02 34.9036 100.544 36.7361 97.1653C38.8979 93.1796 41.4113 89.4236 44.2675 85.8965C46.7578 82.8213 49.5131 79.9993 52.4278 77.3345C55.7314 74.3141 59.2204 71.519 62.9016 68.9672C72.3392 62.4252 82.5891 57.6725 93.7876 55.0583C97.3688 54.2223 101.001 53.6524 104.674 53.3062C109.406 52.8603 114.141 52.8398 118.862 53.1585C125.062 53.577 131.16 54.7066 137.148 56.3992C149.33 59.8428 160.509 65.3061 170.583 72.9936C170.998 73.3104 171.369 73.6847 171.823 74.1236ZM81.0279 226.915C81.0956 227.048 81.1302 227.257 81.236 227.304C82.3321 227.782 83.428 228.266 84.5872 228.584C84.7227 228.399 84.8435 228.29 84.8953 228.154C85.0225 227.821 85.1179 227.476 85.2187 227.159C84.0047 226.426 82.7443 225.944 81.4857 225.726C81.3559 226.045 81.2205 226.378 81.0279 226.915ZM97.9552 231.033C97.4585 230.908 96.9617 230.783 96.4976 230.666C96.0064 231.422 95.9989 231.42 96.0325 232.35C97.2372 232.681 98.4246 233.171 99.6955 233.238C100.012 232.702 100.171 232.23 99.9514 231.626C99.3739 231.456 98.7822 231.281 97.9552 231.033ZM111.319 234.707C111.297 235.059 111.275 235.411 111.249 235.816C112.576 236.168 113.806 236.538 115.186 236.411C115.247 235.877 115.3 235.423 115.36 234.903C114.08 234.55 112.871 234.287 111.616 234.283C111.543 234.282 111.47 234.416 111.319 234.707ZM130.723 237.959C130.7 237.509 131.014 237.037 130.616 236.573C129.404 236.518 128.185 236.125 126.933 236.365C126.709 236.93 126.608 237.418 126.902 238.013C128.038 238.105 129.177 238.201 130.318 238.284C130.41 238.291 130.509 238.21 130.723 237.959ZM151.247 236.622C150.008 236.845 149.998 236.865 150.391 238.435C151.452 238.436 152.546 238.421 153.637 238.31C154.085 238.264 154.302 238.019 154.26 237.566C154.229 237.229 154.084 236.902 154.002 236.611C153.095 236.611 152.309 236.611 151.247 236.622ZM70.1684 222.198C70.5284 221.8 70.7729 221.359 70.7124 220.748C69.6328 220.119 68.5758 219.476 67.381 219.102C66.9543 219.558 66.6457 219.953 66.7455 220.575C67.7672 221.233 68.8362 221.782 70.1684 222.198ZM77.8283 224.645C77.9278 224.378 77.9435 224.107 77.6584 223.966C76.8616 223.573 76.0573 223.193 75.2431 222.838C74.9729 222.719 74.6637 222.691 74.3795 222.623C74.0006 223.107 73.7314 223.526 73.8046 224.142C74.7854 224.584 75.7269 225.032 76.6881 225.432C77.2069 225.648 77.2767 225.582 77.8283 224.645ZM121.178 237.441C121.735 237.429 122.304 237.641 122.955 237.359C122.998 236.925 123.041 236.482 123.09 235.979C121.759 235.559 120.486 235.536 119.124 235.439C119.071 236.035 119.027 236.529 118.978 237.076C119.689 237.203 120.298 237.311 121.178 237.441ZM138.603 237.918C138.578 237.62 138.552 237.321 138.514 236.887C137.164 236.918 135.896 236.699 134.613 236.894C134.573 237.487 134.404 238.003 134.8 238.582C135.852 238.604 136.944 238.634 138.036 238.645C138.323 238.648 138.518 238.483 138.603 237.918ZM89.4611 228.458C89.2007 228.382 88.9184 228.332 88.7644 228.607C88.5364 229.015 88.3288 229.446 88.5956 230.047C89.1129 230.22 89.7017 230.423 90.295 230.612C90.8802 230.799 91.4459 231.079 92.0533 231.086C92.4718 230.605 92.6002 230.13 92.4558 229.527C91.5904 229.087 90.616 228.879 89.4611 228.458ZM105.936 234.867C106.395 234.936 106.853 235.004 107.289 235.068C107.616 234.314 107.625 234.315 107.55 233.434C106.385 233.098 105.203 232.72 103.896 232.749C103.639 233.258 103.447 233.726 103.763 234.338C104.375 234.485 105.035 234.644 105.936 234.867ZM62.3762 218.218C62.6512 218.312 62.9262 218.406 63.2685 218.523C63.4882 218.026 63.6701 217.615 63.8676 217.169C62.79 216.309 61.6864 215.684 60.5016 215.15C60.104 215.601 59.8456 216.021 59.764 216.618C60.5917 217.129 61.3828 217.618 62.3762 218.218ZM142.749 238.636C143.939 238.698 145.132 238.818 146.29 238.546C146.448 237.734 146.449 237.734 146.193 236.937C144.986 236.871 143.756 236.782 142.559 237.021C142.359 237.556 142.362 238.014 142.749 238.636ZM160.956 235.846C159.99 236.01 158.972 235.868 157.995 236.269C157.981 236.589 157.947 236.846 157.965 237.099C157.98 237.298 158.059 237.492 158.127 237.753C159.462 237.842 160.735 237.852 161.947 237.332C161.947 236.893 161.989 236.524 161.936 236.169C161.876 235.758 161.536 235.756 160.956 235.846Z" fill="#6C6DBF"/>
<path d="M165.671 235.329C163.846 235.084 162.012 235.002 160.174 234.912C158.343 234.823 156.519 234.58 154.692 234.402C153.543 234.289 152.392 234.193 151.246 234.052C147.653 233.613 144.045 233.264 140.475 232.684C133.421 231.54 126.432 230.085 119.686 227.656C116.561 226.531 113.536 225.186 110.768 223.331C109.326 222.365 107.971 221.292 106.923 219.867C104.779 216.95 104.491 213.912 106.21 210.705C106.912 209.395 107.876 208.274 108.842 207.169C111.266 204.397 113.615 201.566 115.773 198.584C118.487 194.832 121.019 190.958 123.068 186.796C124.626 183.63 125.94 180.359 126.752 176.919C127.221 174.93 127.556 172.907 127.886 170.889C128.318 168.249 128.713 165.603 129.07 162.952C129.356 160.82 129.557 158.677 129.806 156.54C129.97 155.134 130.158 153.73 130.326 152.324C130.457 151.23 130.585 150.136 130.698 149.04C130.938 146.69 131.133 144.336 131.407 141.99C132.106 135.998 133.567 130.218 136.4 124.848C137.851 122.097 139.59 119.541 141.59 117.149C145.716 112.213 150.799 108.563 156.586 105.857C160.218 104.159 164.022 102.966 167.978 102.275C168.132 102.248 168.278 102.179 168.676 102.081C170.167 101.908 171.429 101.88 172.645 101.627C173.583 101.431 174.506 101.402 175.444 101.395C176.909 101.386 178.377 101.346 179.84 101.406C181.347 101.468 182.85 101.632 184.355 101.756C184.457 101.764 184.555 101.824 184.657 101.834C185.224 101.89 185.792 101.938 186.465 102.043C187.874 102.403 189.176 102.704 190.478 103.011C191.278 103.2 192.077 103.396 192.877 103.589C193.544 103.89 194.225 104.133 194.933 104.345C196.077 104.688 197.198 105.155 198.267 105.694C200.18 106.657 202.093 107.625 203.921 108.756C205.129 109.503 206.268 110.331 207.361 111.228C208.573 112.224 209.768 113.241 210.968 114.252C211.128 114.387 211.289 114.527 211.423 114.687C213.451 117.084 215.595 119.395 217.193 122.121C218.918 125.063 220.569 128.044 221.416 131.389C222.327 133.248 222.534 135.303 223.035 137.276C223.252 138.131 223.388 139.012 223.5 139.889C223.659 141.133 223.751 142.384 223.892 143.63C224.055 145.081 224.236 146.53 224.418 147.979C224.541 148.962 224.758 149.942 224.789 150.928C224.827 152.136 225.009 153.321 225.128 154.517C225.293 156.178 225.438 157.839 225.713 159.489C225.892 160.569 225.951 161.669 226.1 162.755C226.364 164.667 226.652 166.575 226.935 168.483C227.065 169.361 227.189 170.239 227.345 171.112C227.656 172.859 227.988 174.602 228.331 176.596C228.697 178.053 228.981 179.282 229.402 180.463C230.583 183.778 232.025 186.972 233.778 190.035C236.47 194.738 239.587 199.14 243.01 203.327C245.164 205.963 247.501 208.45 249.429 211.268C249.524 211.39 249.685 211.502 249.704 211.635C249.967 213.438 250.391 215.241 249.794 217.061C249.763 217.156 249.784 217.269 249.764 217.513C249.616 217.811 249.456 217.953 249.359 218.131C248.202 220.262 246.499 221.871 244.527 223.233C241.691 225.191 238.557 226.542 235.336 227.7C230.732 229.354 225.995 230.535 221.201 231.481C218.424 232.028 215.635 232.525 212.839 232.975C210.924 233.284 208.992 233.485 207.064 233.713C204.513 234.014 201.961 234.319 199.405 234.575C197.735 234.743 196.057 234.852 194.38 234.943C191.706 235.088 189.024 235.123 186.356 235.335C180.946 235.766 175.533 235.54 169.864 235.466C168.294 235.385 166.983 235.357 165.671 235.329ZM223.673 224.804C224.679 224.499 225.689 224.206 226.69 223.887C228.797 223.215 230.854 222.417 232.79 221.336C233.85 220.744 234.858 220.072 235.672 219.158C237.178 217.467 237.202 215.726 235.655 214.096C235.011 213.418 234.246 212.83 233.462 212.312C231.696 211.146 229.732 210.38 227.741 209.696C221.699 207.622 215.448 206.478 209.142 205.62C206.02 205.195 202.882 204.861 199.741 204.597C195.762 204.262 191.776 203.992 187.788 203.787C185.216 203.655 182.636 203.669 180.059 203.654C172.959 203.613 165.861 203.671 158.781 204.294C155.849 204.552 152.908 204.724 149.988 205.077C146.703 205.474 143.434 205.999 140.167 206.526C136.116 207.18 132.131 208.126 128.22 209.375C126.113 210.047 124.048 210.839 122.14 211.966C121.242 212.497 120.356 213.105 119.615 213.831C117.603 215.8 117.848 217.707 119.742 219.575C119.891 219.722 120.055 219.86 120.229 219.976C121.06 220.528 121.85 221.169 122.741 221.595C124.303 222.341 125.897 223.046 127.533 223.605C134.431 225.963 141.59 227.106 148.794 227.995C151.244 228.297 153.711 228.462 156.166 228.73C160.455 229.197 164.764 229.379 169.069 229.501C176.271 229.705 183.477 229.722 190.676 229.294C193.037 229.154 195.404 229.083 197.759 228.872C202.05 228.486 206.337 228.06 210.6 227.412C214.915 226.757 219.201 225.977 223.673 224.804ZM145.949 135.416C146.408 134.017 146.932 132.646 147.64 131.349C148.421 129.921 149.132 128.452 149.98 127.065C150.77 125.77 151.601 124.475 152.588 123.33C154.764 120.81 157.339 118.74 160.252 117.114C164.085 114.975 168.145 113.469 172.486 112.738C173.707 112.533 174.76 112.005 175.582 111.015C176.42 110.006 176.443 108.16 175.563 107.225C175.203 106.842 174.854 106.433 174.433 106.128C174.061 105.858 173.606 105.572 173.171 105.544C172.073 105.473 170.94 105.395 169.87 105.59C168.228 105.89 166.614 106.371 165.012 106.854C161.119 108.028 157.504 109.817 153.989 111.842C151.422 113.321 149.181 115.208 147.018 117.192C145.077 118.972 143.533 121.103 142.065 123.277C140.833 125.103 139.804 127.044 138.834 129.027C137.396 131.967 136.323 135.01 135.661 138.214C135.15 140.683 134.779 143.152 134.82 145.686C134.839 146.804 135.078 147.867 135.276 148.945C135.468 149.99 136.164 150.693 137.017 151.272C137.993 151.934 139.083 151.912 140.198 151.936C142.305 151.983 144.048 150.287 144.007 148.182C143.992 147.397 143.97 146.611 144.249 145.844C144.352 145.561 144.301 145.219 144.305 144.904C144.322 143.647 144.36 142.405 144.581 141.149C144.909 139.288 145.256 137.443 145.949 135.416ZM229.138 195.382C231.403 194.119 231.848 192.291 230.415 190.146C230.27 189.927 230.152 189.688 229.991 189.482C227.607 186.421 225.908 183.004 224.788 179.304C224.334 177.805 223.936 176.277 223.669 174.735C223.24 172.266 222.671 169.812 222.614 167.288C222.609 167.079 222.567 166.871 222.543 166.663C222.465 165.989 222.375 165.317 222.313 164.642C222.275 164.224 222.373 163.771 222.247 163.387C221.926 162.408 222.019 161.411 221.994 160.417C221.98 159.839 222.031 159.255 221.97 158.682C221.846 157.518 221.534 156.459 220.544 155.654C219.585 154.874 217.263 154.811 216.311 155.85C215.664 156.556 215.343 157.366 215.374 158.276C215.452 160.527 215.597 162.776 215.716 165.025C215.719 165.078 215.724 165.131 215.739 165.181C216.191 166.65 215.931 168.2 216.281 169.693C216.578 170.957 216.643 172.275 216.857 173.561C217.063 174.799 217.335 176.025 217.565 177.259C218.213 180.735 219.338 184.064 220.918 187.212C222.093 189.553 223.507 191.765 225.093 193.87C225.928 194.979 226.852 195.641 228.263 195.499C228.472 195.478 228.682 195.473 229.138 195.382Z" fill="#CDCDFF"/>
<path d="M330.108 57.0125C329.855 57.2697 329.634 57.5712 329.345 57.7773C326.572 59.7533 323.786 61.7116 321.006 63.6779C315.274 67.7317 309.545 71.7884 303.813 75.8414C301.675 77.3538 299.53 78.8574 297.39 80.3686C296.491 81.0031 295.599 81.6467 294.554 82.423C293.06 83.7411 291.857 85.0495 290.841 86.5259C290.293 86.391 290.376 85.8796 290.304 85.5181C290.039 84.1914 289.834 82.8528 289.608 81.5183C289.41 80.3383 289.214 79.1577 289.024 77.8512C289.648 77.4418 290.279 77.1841 290.881 76.8711C295.31 74.5686 299.731 72.2501 304.16 69.9462C310.034 66.8901 315.913 63.8438 321.788 60.791C323.933 59.6766 326.072 58.551 328.22 57.441C328.685 57.2007 329.173 57.0056 329.822 56.8358C330.032 56.9254 330.07 56.969 330.108 57.0125Z" fill="#FAA734"/>
<path d="M249.427 211.138C247.5 208.45 245.164 205.963 243.009 203.327C239.587 199.14 236.47 194.738 233.778 190.035C232.025 186.972 230.583 183.778 229.402 180.463C228.981 179.282 228.697 178.052 228.337 176.728C229.333 177.359 230.4 178.041 231.343 178.865C239.082 185.62 244.636 193.843 247.798 203.636C248.573 206.036 249.14 208.494 249.427 211.138ZM237.489 191.547C237.382 191.84 237.255 192.129 237.178 192.43C237.144 192.566 237.211 192.729 237.244 192.963C237.634 193.128 238.044 193.301 238.522 193.502C239.072 192.17 239.732 191.001 239.935 189.651C239.434 189.312 239.01 189.021 238.431 189.307C238.147 189.982 237.865 190.653 237.489 191.547Z" fill="#6F70C0"/>
<path d="M192.87 103.47C192.077 103.396 191.278 103.2 190.478 103.011C189.176 102.704 187.874 102.403 186.46 101.899C186.334 99.4862 186.32 97.2738 186.305 95.0614C186.318 93.3062 186.332 91.551 186.343 89.6602C187.508 90.6915 188.198 92.1767 188.98 93.5884C190.688 96.673 192.018 99.9181 192.87 103.47Z" fill="#6F70C0"/>
<path d="M256.452 72.6145C257.147 73.395 257.457 74.203 257.438 75.1363C257.405 76.7187 256.373 78.0533 254.842 78.486C253.408 78.8913 251.844 78.3058 250.992 77.0444C250.159 75.8099 250.205 74.1106 251.105 72.9299C252.051 71.6892 253.74 71.1929 255.185 71.784C255.61 71.9583 255.977 72.2784 256.452 72.6145Z" fill="#F58713"/>
<path d="M290.972 86.5386C291.857 85.0495 293.06 83.7411 294.495 82.5133C295.257 83.1831 295.934 83.8937 296.595 84.6197C296.76 84.8009 296.871 85.0318 296.989 85.3304C295.016 85.7977 293.06 86.1746 290.972 86.5386Z" fill="#F58713"/>
<path d="M242.249 173.207C242.67 173.275 242.97 173.342 243.248 173.404C243.414 174.554 243.241 176.093 242.781 177.497C242.363 177.462 241.92 177.425 241.382 177.38C241.37 176.996 241.328 176.696 241.359 176.404C241.444 175.578 241.558 174.754 241.663 173.93C241.703 173.616 241.749 173.304 242.249 173.207Z" fill="#FAAC41"/>
<path d="M261.927 113.265C262.153 112.976 262.306 112.763 262.405 112.624C263.193 112.698 263.402 113.225 263.816 113.633C263.146 114.776 262.124 115.587 261.281 116.558C260.643 116.528 260.36 116.091 260.027 115.644C260.145 115.096 260.617 114.805 260.933 114.408C261.225 114.041 261.545 113.695 261.927 113.265Z" fill="#FAAC41"/>
<path d="M251.768 127.046C252.125 126.467 252.427 125.986 252.712 125.533C253.369 125.582 253.678 126.008 254.165 126.36C253.491 127.546 252.857 128.663 252.24 129.75C251.558 129.714 251.156 129.429 250.798 128.922C251.097 128.34 251.405 127.742 251.768 127.046Z" fill="#FAAC41"/>
<path d="M247.021 140.717C247.44 140.86 247.739 140.993 247.632 141.405C247.334 142.56 247.019 143.711 246.685 144.961C246.153 144.852 245.711 144.762 245.186 144.655C245.224 144.28 245.221 143.977 245.29 143.692C245.497 142.828 245.715 141.966 245.962 141.113C246.106 140.611 246.134 140.619 247.021 140.717Z" fill="#FAAC41"/>
<path d="M245.584 151.198C245.465 151.831 245.363 152.338 245.244 152.934C244.751 152.893 244.301 152.855 243.896 152.821C243.806 152.664 243.707 152.573 243.713 152.491C243.809 151.196 243.948 149.908 244.343 148.614C244.606 148.638 244.81 148.641 245.008 148.68C245.258 148.73 245.503 148.81 245.786 148.886C245.977 149.659 245.585 150.352 245.584 151.198Z" fill="#FAAC41"/>
<path d="M272.737 105.417C271.993 105.412 271.842 104.864 271.532 104.382C272.285 103.28 273.467 102.676 274.429 101.82C275.036 102.022 275.188 102.55 275.564 103.001C274.757 103.962 273.721 104.582 272.737 105.417Z" fill="#FAAC41"/>
<path d="M249.686 135.426C249.433 136.062 249.223 136.587 248.974 137.212C248.49 137.043 248.07 136.897 247.706 136.77C247.641 136.579 247.559 136.467 247.583 136.388C247.777 135.744 247.965 135.098 248.205 134.471C248.425 133.898 248.708 133.348 249 132.709C249.509 132.955 249.916 133.152 250.343 133.358C250.376 134.135 249.896 134.679 249.686 135.426Z" fill="#FAAC41"/>
<path d="M279.13 98.2436C279.776 97.7945 280.331 97.4119 280.901 97.0193C281.425 97.3572 281.653 97.8088 281.853 98.3637C280.9 99.2547 279.813 99.9524 278.687 100.692C278.458 100.412 278.245 100.186 278.075 99.9312C277.964 99.7662 277.916 99.5595 277.812 99.3018C278.235 98.9601 278.637 98.6351 279.13 98.2436Z" fill="#FAAC41"/>
<path d="M43.0008 204.535C42.0775 203.774 41.21 203.107 40.4714 202.184C40.8033 201.8 41.1013 201.456 41.4246 201.082C42.1402 201.358 42.59 201.879 43.1021 202.302C43.5805 202.696 44.0257 203.132 44.5348 203.594C44.2441 204.005 44.0295 204.358 43.765 204.668C43.5408 204.932 43.2975 204.765 43.0008 204.535Z" fill="#FAAC41"/>
<path d="M240.13 183.243C240.297 182.561 240.429 182.002 240.56 181.445C241.15 181.192 241.612 181.374 242.133 181.721C242.013 183.053 241.682 184.343 241.169 185.704C240.666 185.55 240.238 185.419 239.799 185.284C239.67 184.553 240.047 183.982 240.13 183.243Z" fill="#FAAC41"/>
<path d="M242.558 169.218C242.362 169.038 242.239 168.902 242.238 168.765C242.231 167.574 242.282 166.386 242.51 165.239C243.249 165.03 243.25 165.023 244.048 165.312C244.12 166.589 244.053 167.87 243.768 169.216C243.391 169.231 243.04 169.246 242.558 169.218Z" fill="#FAAC41"/>
<path d="M258.523 119.961C257.747 121.006 257.123 122.038 256.233 122.976C255.81 122.664 255.446 122.396 255.05 122.104C255.608 120.804 256.498 119.851 257.336 118.767C257.93 118.961 258.353 119.278 258.523 119.961Z" fill="#FAAC41"/>
<path d="M53.8874 210.828C55.0248 211.487 56.0715 212.214 57.1561 212.966C57.0245 213.313 56.9188 213.591 56.7817 213.974C56.5427 214.221 56.3327 214.445 56.0656 214.272C55.079 213.63 54.1054 212.968 53.1211 212.309C53.149 211.683 53.5087 211.306 53.8874 210.828Z" fill="#EEA03C"/>
<path d="M267.921 109.734C267.446 110.151 267.052 110.489 266.651 110.833C266.104 110.596 265.791 110.213 265.575 109.647C265.9 109.304 266.205 108.95 266.544 108.63C267.112 108.093 267.702 107.578 268.287 107.049C268.917 107.225 269.164 107.668 269.388 108.169C269.071 108.805 268.461 109.162 267.921 109.734Z" fill="#FAA837"/>
<path d="M244.564 160.255C244.48 160.702 244.43 161.052 244.023 161.06C243.674 161.067 243.323 160.998 242.873 160.952C242.831 159.554 242.941 158.263 243.207 156.998C243.694 156.644 244.129 156.844 244.553 157.008C244.618 157.114 244.719 157.201 244.716 157.285C244.681 158.229 244.629 159.173 244.564 160.255Z" fill="#FAAC41"/>
<path d="M35.9459 198.061C35.4752 197.568 35.0843 197.155 34.6377 196.682C35.009 196.263 35.3103 195.922 35.6538 195.535C36.3517 195.862 36.7391 196.439 37.2212 196.894C37.6762 197.323 38.1022 197.783 38.543 198.231C38.4026 198.839 38.0452 199.184 37.5535 199.491C36.9136 199.168 36.5253 198.588 35.9459 198.061Z" fill="#FAAC41"/>
<path d="M46.8479 207.626C46.9529 206.856 46.9443 206.85 47.5584 206.2C48.6848 206.724 49.5722 207.6 50.5221 208.346C50.4063 209.087 50.4173 209.093 49.7937 209.746C49.1961 209.61 48.7559 209.153 48.2672 208.788C47.8068 208.444 47.3635 208.077 46.8479 207.626Z" fill="#FAAC41"/>
<path d="M312.32 178.109C312.279 178.526 312.283 178.954 312.191 179.36C310.852 185.247 309.502 191.132 308.149 197.015C308.115 197.163 308.026 197.298 307.97 197.424C307.174 197.576 304.985 197.309 302.757 196.639C302.839 194.227 303.03 191.985 303.23 189.745C303.524 186.462 303.82 183.18 304.126 179.898C304.217 178.917 304.279 177.929 304.542 176.888C307.166 177.3 309.743 177.704 312.32 178.109Z" fill="#FFFDFB"/>
<path d="M304.696 200.199C305.094 200.331 305.496 200.453 305.89 200.596C307.672 201.242 308.735 203.019 308.428 204.819C308.072 206.914 306.122 208.28 304.616 208.17C303.881 208.116 303.151 208.136 302.467 207.787C302.248 207.674 301.975 207.665 301.645 207.468C301.459 207.268 301.356 207.208 301.252 207.148C301.252 207.148 301.256 207.171 301.222 207.064C300.972 206.663 300.724 206.387 300.548 206.071C299.271 203.775 300.313 201.198 302.844 200.456C303.436 200.282 304.078 200.28 304.696 200.199Z" fill="#FEFDFB"/>
<path d="M312.384 178.032C309.743 177.704 307.166 177.3 304.542 176.888C304.28 177.929 304.217 178.917 304.126 179.898C303.821 183.18 303.524 186.462 303.23 189.745C303.03 191.985 302.84 194.227 302.622 196.613C302.302 196.709 302.005 196.658 301.77 196.619C301.697 196.482 301.648 196.434 301.652 196.39C301.793 194.89 301.937 193.39 302.085 191.89C302.101 191.735 302.155 191.583 302.165 191.427C302.286 189.605 302.395 187.782 302.525 185.96C302.566 185.39 302.661 184.824 302.731 184.256C302.757 184.048 302.795 183.842 302.807 183.634C302.929 181.602 303.048 179.57 303.167 177.538C303.176 177.381 303.175 177.222 303.197 177.068C303.281 176.49 303.551 176.203 304.14 176.25C305.073 176.324 306.001 176.473 306.928 176.613C308.111 176.791 309.293 176.983 310.473 177.186C311.088 177.292 311.7 177.425 312.305 177.579C312.38 177.598 312.402 177.825 312.384 178.032Z" fill="#F6901F"/>
<path d="M304.604 200.119C304.078 200.28 303.436 200.282 302.844 200.456C300.313 201.198 299.271 203.775 300.548 206.071C300.724 206.387 300.972 206.663 301.232 207.06C300.687 207.27 300.267 206.999 299.911 206.563C298.93 205.358 298.809 203.94 299.117 202.527C299.31 201.637 300.127 201.075 300.875 200.577C301.994 199.833 303.233 199.779 304.604 200.119Z" fill="#F6901F"/>
<path d="M301.282 207.228C301.356 207.208 301.459 207.268 301.571 207.419C301.491 207.443 301.402 207.375 301.282 207.228Z" fill="#F6901F"/>
<path d="M45.055 96.7596C45.3893 96.513 45.6968 96.2123 46.0634 96.0307C46.8733 95.6294 47.8906 95.8339 48.5232 96.461C49.2357 97.1675 49.4208 98.1627 48.9386 99.0538C48.7181 99.4613 48.3963 99.818 48.0966 100.178C44.9764 103.924 42.173 107.887 39.8266 112.282C39.6811 112.551 39.5306 112.702 39.4325 112.882C36.787 117.729 34.7201 122.814 33.1586 128.109C32.2393 131.226 31.5713 134.399 31.0316 137.6C30.8663 138.58 30.7217 139.567 30.6406 140.557C30.5234 141.988 29.9036 143.044 28.3409 143.693C26.5459 143.97 25.3446 143.384 24.4673 142.084C24.3794 141.954 24.2691 141.839 24.1698 141.716C20.4251 137.091 15.976 133.28 10.8805 130.217C10.16 129.784 9.40756 129.403 8.69271 128.961C7.66912 128.329 7.32288 127.41 7.66109 126.256C7.74851 125.958 7.92752 125.686 8.06446 125.403C9.23005 124.503 10.3298 124.716 11.5563 125.404C16.8205 128.357 21.4801 132.063 25.7441 136.591C26.0316 136.917 26.1956 137.091 26.3863 137.293C26.4917 137.095 26.5634 137.012 26.5812 136.919C26.7086 136.251 26.82 135.58 26.9457 134.911C28.554 126.358 31.3784 118.236 35.5734 110.6C35.7484 110.282 35.8792 109.939 36.1153 109.544C36.9697 108.226 37.7465 106.975 38.5032 105.711C38.6599 105.45 38.7422 105.144 38.8588 104.858C38.8588 104.858 38.8413 104.861 38.9407 104.836C39.1904 104.512 39.3407 104.212 39.491 103.911C39.491 103.911 39.4731 103.913 39.5759 103.889C40.142 103.143 40.6053 102.421 41.0687 101.699C41.0687 101.699 41.0505 101.702 41.1484 101.674C41.5014 101.24 41.7565 100.832 42.0116 100.425C42.0116 100.425 42.0045 100.45 42.0921 100.417C42.3388 100.088 42.498 99.7919 42.6571 99.4959C42.6571 99.4959 42.6359 99.4976 42.7378 99.4961C42.9858 99.2805 43.1319 99.0664 43.278 98.8522C43.278 98.8522 43.2575 98.8571 43.3492 98.823C43.6025 98.4989 43.764 98.2091 43.9255 97.9192C43.9255 97.9192 43.9023 97.9221 44.0029 97.9166C44.2517 97.6994 44.3999 97.4877 44.5482 97.2761C44.5482 97.2761 44.522 97.2786 44.6005 97.26C44.7373 97.1465 44.7957 97.0516 44.854 96.9567C44.854 96.9567 44.8334 96.9612 44.8795 96.9438C44.9936 96.8901 45.0367 96.8345 45.055 96.7596Z" fill="#FEFDFB"/>
<path d="M7.93941 125.41C7.92771 125.686 7.74869 125.958 7.66128 126.256C7.32307 127.41 7.66931 128.329 8.6929 128.962C9.40775 129.403 10.1602 129.784 10.8807 130.217C15.9762 133.28 20.4252 137.091 24.17 141.716C24.2693 141.839 24.3795 141.954 24.4674 142.084C25.3448 143.384 26.5461 143.97 28.2473 143.756C27.6037 144.523 26.634 144.417 25.7056 144.281C24.8919 144.162 24.296 143.609 23.8218 142.954C22.2156 140.733 20.332 138.751 18.2936 136.945C15.1518 134.161 11.7634 131.697 8.04545 129.713C7.6793 129.518 7.28353 129.314 7.01607 129.012C6.55564 128.493 6.26047 127.838 6.44088 127.135C6.63366 126.383 6.83451 125.569 7.93941 125.41Z" fill="#F6901F"/>
<path d="M36.0307 109.607C35.8793 109.939 35.7486 110.282 35.5736 110.6C31.3786 118.236 28.5541 126.358 26.9458 134.911C26.8201 135.58 26.7088 136.251 26.5814 136.919C26.5636 137.012 26.4919 137.095 26.3865 137.293C26.1957 137.091 26.0318 136.917 25.8318 136.65C26.5004 132.903 27.3476 129.287 28.4499 125.727C30.0245 120.641 32.1587 115.802 34.6438 111.107C34.911 110.602 35.1526 110.083 35.4265 109.46C35.447 109.349 35.5719 109.324 35.6739 109.392C35.8452 109.536 35.9301 109.585 36.0307 109.607Z" fill="#F6901F"/>
<path d="M330.24 56.4591C331.294 55.6619 331.326 55.6473 332.488 55.4465C332.022 56.1334 331.403 56.4434 330.656 56.7207C330.421 56.5991 330.33 56.5291 330.24 56.4591Z" fill="#FFCF58"/>
<path d="M330.172 56.4996C330.33 56.5291 330.421 56.5991 330.551 56.7447C330.482 56.8616 330.374 56.903 330.187 56.9785C330.07 56.969 330.032 56.9255 329.935 56.8171C329.935 56.6639 330.012 56.5931 330.172 56.4996Z" fill="#FAA734"/>
<path d="M332.961 55.1069C332.984 55.0927 332.994 55.1495 332.994 55.1495C332.994 55.1495 332.937 55.121 332.961 55.1069Z" fill="#FFCF58"/>
<path d="M170.611 77.5746C171.746 74.7418 173.831 74.0365 176.471 74.2448C176.626 74.2571 176.787 74.2743 176.932 74.3261C180.046 75.4374 181.694 78.7174 179.953 81.8041C179.048 83.4104 177.598 84.3564 175.579 84.3802C173.794 84.4012 172.353 83.8316 171.367 82.4139C170.389 81.0082 169.802 79.437 170.611 77.5746Z" fill="#F6F6FF"/>
<path d="M186.21 95.1086C186.32 97.2737 186.334 99.4862 186.354 101.843C185.792 101.938 185.224 101.89 184.657 101.834C184.555 101.824 184.457 101.764 184.355 101.756C182.85 101.632 181.347 101.468 179.839 101.406C178.376 101.346 176.909 101.386 175.444 101.395C174.506 101.401 173.583 101.431 172.645 101.627C171.429 101.88 170.167 101.908 168.791 102.036C168.658 99.9082 168.658 97.7774 168.689 95.4969C169.06 95.5802 169.421 95.7893 169.738 96.0509C170.594 96.7557 171.502 97.3257 172.561 97.7196C174.151 98.3108 175.802 98.6088 177.453 98.8102C179.418 99.0497 181.269 98.4738 183.047 97.5923C184.261 96.9902 185.145 96.0323 186.21 95.1086Z" fill="#A998FE"/>
<path d="M42.6454 4.0198C43.2621 4.4405 43.8205 4.75344 44.2671 5.18262C45.9077 6.75895 46.2851 8.73957 45.6772 10.8297C45.0963 12.8271 43.6732 14.1062 41.6123 14.6C39.3393 15.1446 37.4256 14.4412 35.9943 12.6886C34.5124 10.874 34.2465 8.78747 35.3268 6.65206C36.3993 4.53203 38.2014 3.513 40.551 3.53691C41.214 3.54366 41.8743 3.81526 42.6454 4.0198Z" fill="#FFFDFB"/>
<path d="M273.97 38.887C273.21 40.9574 271.805 42.0504 269.792 42.4943C268.444 42.7916 267.284 42.3789 266.185 41.733C264.142 40.5324 263.209 38.1069 263.861 35.8756C264.542 33.5449 266.67 31.894 268.995 31.954C271.86 32.0279 274.262 34.3269 274.168 37.042C274.148 37.6175 274.069 38.191 273.97 38.887Z" fill="#FFFDFB"/>
<path d="M45.6103 252.353C44.3707 254.479 42.6089 255.385 40.2837 255.199C37.8021 255 35.4634 252.641 35.6192 249.779C35.7672 247.06 37.8287 244.892 40.4998 244.706C44.2682 244.444 47.0816 248.004 45.8777 251.65C45.8118 251.85 45.7385 252.047 45.6103 252.353Z" fill="#FFFDFB"/>
<path d="M81.0564 226.812C81.2204 226.378 81.3558 226.045 81.4857 225.726C82.7442 225.944 84.0047 226.426 85.2186 227.159C85.1178 227.476 85.0224 227.821 84.8953 228.154C84.8434 228.29 84.7226 228.399 84.5871 228.584C83.4279 228.266 82.332 227.782 81.2359 227.304C81.1301 227.257 81.0955 227.048 81.0564 226.812Z" fill="#EEA03C"/>
<path d="M98.0728 231.07C98.7822 231.281 99.3738 231.456 99.9514 231.626C100.171 232.23 100.012 232.702 99.6954 233.238C98.4245 233.171 97.2372 232.681 96.0324 232.351C95.9989 231.42 96.0064 231.422 96.4975 230.666C96.9616 230.783 97.4584 230.908 98.0728 231.07Z" fill="#EEA03C"/>
<path d="M111.358 234.597C111.47 234.416 111.543 234.282 111.616 234.283C112.871 234.287 114.08 234.55 115.36 234.903C115.3 235.423 115.247 235.877 115.186 236.411C113.806 236.538 112.577 236.168 111.249 235.816C111.275 235.411 111.297 235.059 111.358 234.597Z" fill="#EEA03C"/>
<path d="M130.663 238.065C130.508 238.21 130.41 238.291 130.318 238.284C129.177 238.201 128.038 238.105 126.902 238.013C126.608 237.418 126.709 236.93 126.932 236.365C128.185 236.126 129.403 236.518 130.616 236.573C131.014 237.037 130.7 237.509 130.663 238.065Z" fill="#EEA03C"/>
<path d="M151.385 236.617C152.309 236.611 153.095 236.611 154.002 236.611C154.084 236.902 154.229 237.229 154.26 237.566C154.302 238.02 154.085 238.264 153.637 238.31C152.546 238.421 151.452 238.436 150.391 238.435C149.998 236.865 150.008 236.845 151.385 236.617Z" fill="#EEA03C"/>
<path d="M70.0577 222.226C68.8361 221.782 67.7672 221.233 66.7454 220.575C66.6456 219.953 66.9542 219.558 67.381 219.103C68.5757 219.476 69.6327 220.119 70.7123 220.748C70.7729 221.36 70.5283 221.8 70.0577 222.226Z" fill="#EEA03C"/>
<path d="M77.7853 224.754C77.2766 225.582 77.2068 225.648 76.688 225.432C75.7268 225.032 74.7853 224.584 73.8045 224.142C73.7313 223.526 74.0005 223.107 74.3794 222.623C74.6636 222.691 74.9728 222.72 75.243 222.838C76.0572 223.193 76.8615 223.573 77.6583 223.966C77.9434 224.107 77.9277 224.379 77.7853 224.754Z" fill="#EEA03C"/>
<path d="M121.042 237.43C120.298 237.311 119.689 237.203 118.978 237.076C119.027 236.529 119.071 236.035 119.124 235.439C120.486 235.536 121.759 235.559 123.09 235.979C123.041 236.482 122.998 236.925 122.955 237.359C122.304 237.641 121.735 237.429 121.042 237.43Z" fill="#EEA03C"/>
<path d="M138.592 238.053C138.518 238.483 138.323 238.648 138.036 238.645C136.943 238.634 135.851 238.604 134.8 238.582C134.404 238.003 134.573 237.487 134.613 236.894C135.896 236.699 137.164 236.918 138.514 236.887C138.552 237.321 138.577 237.62 138.592 238.053Z" fill="#EEA03C"/>
<path d="M89.5747 228.502C90.6159 228.879 91.5902 229.087 92.4557 229.527C92.6 230.13 92.4717 230.606 92.0532 231.086C91.4458 231.079 90.8801 230.799 90.2949 230.612C89.7016 230.423 89.1128 230.22 88.5955 230.047C88.3286 229.446 88.5362 229.015 88.7643 228.607C88.9183 228.332 89.2005 228.382 89.5747 228.502Z" fill="#EEA03C"/>
<path d="M105.816 234.835C105.035 234.644 104.375 234.485 103.763 234.338C103.447 233.726 103.639 233.258 103.895 232.749C105.203 232.72 106.385 233.098 107.55 233.434C107.625 234.315 107.616 234.314 107.289 235.068C106.853 235.004 106.395 234.936 105.816 234.835Z" fill="#EEA03C"/>
<path d="M62.2749 218.162C61.3827 217.618 60.5916 217.129 59.7639 216.618C59.8455 216.021 60.1038 215.601 60.5015 215.15C61.6862 215.684 62.7899 216.309 63.8675 217.169C63.67 217.615 63.4881 218.026 63.2683 218.523C62.926 218.406 62.6511 218.312 62.2749 218.162Z" fill="#EEA03C"/>
<path d="M142.636 238.554C142.362 238.014 142.359 237.556 142.559 237.021C143.756 236.782 144.986 236.871 146.193 236.937C146.449 237.734 146.448 237.734 146.29 238.546C145.132 238.818 143.939 238.698 142.636 238.554Z" fill="#EEA03C"/>
<path d="M161.081 235.824C161.536 235.756 161.876 235.758 161.936 236.169C161.989 236.524 161.947 236.892 161.947 237.332C160.735 237.852 159.462 237.842 158.127 237.753C158.059 237.492 157.98 237.298 157.965 237.099C157.947 236.846 157.981 236.589 157.995 236.269C158.972 235.868 159.99 236.01 161.081 235.824Z" fill="#EEA03C"/>
<path d="M165.666 235.445C166.983 235.357 168.294 235.385 169.711 235.471C169.801 235.778 169.787 236.027 169.769 236.331C168.476 236.567 167.257 236.979 165.911 236.792C165.823 236.357 165.742 235.959 165.666 235.445Z" fill="#EEA03C"/>
<path d="M36.1154 109.544C35.9301 109.585 35.8451 109.536 35.7373 109.396C36.6798 107.843 37.6608 106.353 38.7504 104.861C38.7423 105.144 38.6599 105.45 38.5033 105.711C37.7465 106.975 36.9698 108.226 36.1154 109.544Z" fill="#EEA03C"/>
<path d="M40.9621 101.713C40.6053 102.421 40.142 103.143 39.5769 103.898C39.5418 103.686 39.5492 103.399 39.6865 103.203C40.0459 102.69 40.4621 102.217 40.9621 101.713Z" fill="#EEA03C"/>
<path d="M41.9104 100.456C41.7565 100.832 41.5013 101.24 41.1489 101.684C41.0699 101.165 41.4183 100.814 41.9104 100.456Z" fill="#EEA03C"/>
<path d="M39.3814 103.921C39.3408 104.212 39.1906 104.512 38.9419 104.845C38.7504 104.456 38.9712 104.175 39.3814 103.921Z" fill="#EEA03C"/>
<path d="M43.8381 97.9713C43.764 98.209 43.6025 98.4989 43.3489 98.8335C43.4214 98.5933 43.5861 98.3084 43.8381 97.9713Z" fill="#EEA03C"/>
<path d="M44.4538 97.3033C44.3999 97.4878 44.2517 97.6994 44.0051 97.9281C44.0577 97.7403 44.2086 97.5354 44.4538 97.3033Z" fill="#EEA03C"/>
<path d="M43.1796 98.8694C43.132 99.0665 42.9859 99.2806 42.7402 99.5066C42.7875 99.3078 42.9343 99.0971 43.1796 98.8694Z" fill="#EEA03C"/>
<path d="M42.5657 99.5403C42.498 99.7919 42.3389 100.088 42.0796 100.414C42.1443 100.157 42.3093 99.8711 42.5657 99.5403Z" fill="#EEA03C"/>
<path d="M44.7742 96.9877C44.7958 97.0516 44.7374 97.1465 44.6 97.2731C44.5787 97.2094 44.6365 97.114 44.7742 96.9877Z" fill="#EEA03C"/>
<path d="M45.0045 96.7799C45.0369 96.8345 44.9938 96.8901 44.8787 96.9543C44.8593 96.9128 44.9001 96.8521 45.0045 96.7799Z" fill="#EEA03C"/>
<path d="M223.547 224.831C219.201 225.977 214.915 226.757 210.6 227.412C206.337 228.06 202.05 228.486 197.759 228.872C195.404 229.083 193.037 229.154 190.676 229.294C183.477 229.722 176.271 229.705 169.069 229.501C164.764 229.379 160.455 229.197 156.166 228.73C153.711 228.462 151.244 228.297 148.794 227.995C141.59 227.106 134.431 225.963 127.533 223.605C125.897 223.046 124.303 222.341 122.741 221.595C121.85 221.169 121.06 220.528 120.229 219.976C120.055 219.86 119.891 219.722 119.742 219.575C117.848 217.707 117.603 215.8 119.615 213.831C120.356 213.105 121.242 212.497 122.14 211.966C124.048 210.839 126.113 210.047 128.22 209.375C132.131 208.126 136.116 207.18 140.167 206.526C143.434 205.999 146.703 205.474 149.988 205.077C152.908 204.724 155.849 204.552 158.781 204.294C165.861 203.671 172.959 203.613 180.059 203.654C182.636 203.669 185.216 203.655 187.788 203.787C191.776 203.992 195.762 204.262 199.741 204.597C202.882 204.861 206.02 205.195 209.142 205.62C215.448 206.478 221.699 207.622 227.741 209.696C229.732 210.38 231.696 211.146 233.462 212.312C234.246 212.83 235.011 213.418 235.655 214.096C237.202 215.726 237.178 217.467 235.672 219.158C234.858 220.072 233.85 220.744 232.79 221.336C230.854 222.417 228.797 223.215 226.69 223.887C225.689 224.206 224.679 224.499 223.547 224.831ZM184.62 220.815C186.536 219.613 187.976 217.981 189.068 216.008C190.028 214.271 190.466 212.392 190.679 210.449C190.827 209.097 190.33 207.988 189.283 207.107C188.463 206.417 187.518 205.966 186.528 205.608C184.389 204.836 182.178 204.398 179.904 204.331C178.485 204.289 177.065 204.304 175.645 204.306C173.421 204.309 171.249 204.695 169.131 205.332C167.719 205.757 166.371 206.351 165.293 207.426C164.588 208.13 164.142 208.933 164.232 209.952C164.305 210.787 164.361 211.63 164.529 212.448C165.722 218.231 170.576 222.56 176.769 222.925C179.515 223.087 182.084 222.412 184.62 220.815Z" fill="#4F2EA3"/>
<path d="M145.918 135.538C145.256 137.443 144.908 139.288 144.581 141.149C144.36 142.405 144.322 143.647 144.305 144.904C144.3 145.219 144.352 145.561 144.249 145.844C143.97 146.611 143.992 147.397 144.007 148.182C144.048 150.287 142.305 151.983 140.198 151.936C139.083 151.912 137.992 151.935 137.017 151.272C136.164 150.693 135.468 149.99 135.276 148.945C135.077 147.867 134.838 146.804 134.82 145.686C134.779 143.152 135.15 140.683 135.66 138.214C136.323 135.01 137.396 131.967 138.834 129.027C139.804 127.044 140.833 125.103 142.065 123.277C143.533 121.103 145.077 118.972 147.018 117.192C149.181 115.208 151.422 113.321 153.989 111.842C157.504 109.817 161.119 108.028 165.012 106.854C166.614 106.371 168.228 105.89 169.87 105.59C170.94 105.395 172.073 105.473 173.171 105.544C173.606 105.572 174.061 105.858 174.433 106.128C174.853 106.433 175.203 106.842 175.563 107.225C176.443 108.16 176.42 110.006 175.582 111.015C174.76 112.005 173.707 112.533 172.486 112.738C168.145 113.469 164.085 114.975 160.252 117.114C157.338 118.74 154.764 120.81 152.588 123.33C151.601 124.475 150.77 125.77 149.979 127.065C149.132 128.452 148.421 129.921 147.64 131.349C146.932 132.646 146.408 134.017 145.918 135.538ZM148.485 123.557C149.459 122.672 150.284 121.658 151.139 120.661C152.369 119.226 153.918 118.115 155.424 116.981C157.612 115.335 159.951 113.899 162.487 112.876C165.35 111.721 168.247 110.615 171.326 110.126C171.738 110.061 172.168 110.029 172.552 109.883C173.032 109.7 173.511 109.466 173.921 109.16C174.402 108.801 174.398 108.223 174.243 107.709C174.082 107.175 173.683 106.828 173.093 106.775C172.884 106.757 172.671 106.779 172.463 106.757C170.953 106.597 169.565 107.169 168.147 107.506C164.356 108.408 160.784 109.922 157.326 111.681C155.841 112.437 154.448 113.403 153.097 114.388C151.363 115.652 149.661 116.974 148.177 118.538C147.385 119.374 146.646 120.261 145.904 121.142C145.403 121.736 145.482 122.43 145.742 123.077C145.899 123.468 146.256 123.773 146.718 123.781C147.238 123.789 147.759 123.725 148.485 123.557Z" fill="#F2F5FF"/>
<path d="M229.016 195.422C228.683 195.473 228.472 195.478 228.263 195.499C226.852 195.641 225.929 194.979 225.093 193.87C223.507 191.765 222.093 189.553 220.918 187.212C219.338 184.064 218.213 180.735 217.565 177.259C217.335 176.025 217.063 174.799 216.857 173.561C216.643 172.275 216.578 170.957 216.282 169.693C215.931 168.2 216.191 166.65 215.739 165.181C215.724 165.131 215.719 165.078 215.716 165.025C215.597 162.776 215.452 160.527 215.374 158.276C215.343 157.366 215.665 156.556 216.311 155.85C217.263 154.811 219.585 154.874 220.544 155.654C221.534 156.459 221.846 157.518 221.97 158.682C222.031 159.255 221.98 159.839 221.994 160.417C222.019 161.411 221.926 162.408 222.247 163.387C222.373 163.771 222.275 164.224 222.313 164.642C222.375 165.317 222.465 165.989 222.543 166.663C222.567 166.871 222.609 167.079 222.614 167.288C222.671 169.812 223.24 172.266 223.669 174.735C223.937 176.277 224.334 177.805 224.788 179.304C225.908 183.004 227.607 186.422 229.991 189.482C230.152 189.689 230.27 189.927 230.416 190.146C231.848 192.291 231.403 194.119 229.016 195.422ZM220.719 158.849C220.623 158.443 220.442 158.035 220.445 157.629C220.452 156.632 219.903 156.24 219.036 156.095C218.531 156.456 217.969 156.799 217.937 157.408C217.877 158.557 217.852 159.727 218.012 160.861C218.108 161.537 218.195 162.203 218.203 162.883C218.211 163.619 218.13 164.365 218.227 165.088C218.511 167.206 218.853 169.316 219.2 171.425C219.267 171.832 219.433 172.232 219.611 172.608C219.691 172.776 219.893 172.949 220.073 172.998C221.441 173.37 222.188 172.277 221.935 171.426C221.802 170.98 221.746 170.51 221.675 170.048C221.533 169.12 221.428 168.186 221.267 167.262C220.989 165.667 220.678 164.081 220.724 162.448C220.755 161.345 220.729 160.241 220.719 158.849Z" fill="#F2F5FF"/>
<path d="M237.536 191.436C237.865 190.653 238.147 189.982 238.431 189.307C239.01 189.021 239.434 189.312 239.935 189.651C239.733 191.001 239.072 192.17 238.522 193.502C238.044 193.301 237.634 193.128 237.245 192.963C237.212 192.729 237.144 192.566 237.179 192.43C237.255 192.129 237.383 191.84 237.536 191.436Z" fill="#EEA03C"/>
<path d="M184.524 220.878C182.084 222.412 179.515 223.087 176.769 222.925C170.576 222.56 165.722 218.231 164.529 212.448C164.361 211.63 164.305 210.787 164.232 209.952C164.142 208.933 164.588 208.13 165.293 207.426C166.371 206.351 167.719 205.757 169.131 205.332C171.249 204.695 173.421 204.308 175.645 204.306C177.065 204.304 178.485 204.289 179.904 204.331C182.178 204.398 184.389 204.836 186.528 205.608C187.518 205.966 188.463 206.417 189.283 207.107C190.33 207.988 190.828 209.097 190.679 210.449C190.467 212.392 190.028 214.271 189.068 216.008C187.976 217.981 186.536 219.613 184.524 220.878ZM178.47 216.496C178.062 216.592 177.646 216.664 177.247 216.791C176.722 216.958 176.231 216.856 175.703 216.767C174.034 216.486 172.842 215.533 171.853 214.24C170.936 213.042 170.496 211.646 170.187 210.199C170.03 209.466 169.644 208.933 168.893 208.775C168.136 208.616 167.446 208.741 166.882 209.36C166.23 210.077 165.984 210.896 166.16 211.832C166.493 213.607 167.143 215.275 168.12 216.783C168.889 217.971 169.812 219.033 171.024 219.848C173.003 221.179 175.16 221.65 177.474 221.326C178.395 221.197 179.305 220.851 180.167 220.48C181.204 220.032 181.699 219.024 181.568 217.898C181.469 217.06 180.995 216.179 179.819 216.291C179.454 216.326 179.089 216.366 178.47 216.496Z" fill="#A998FE"/>
<path d="M148.382 123.625C147.759 123.725 147.238 123.789 146.718 123.781C146.256 123.773 145.899 123.468 145.742 123.077C145.482 122.43 145.403 121.736 145.904 121.142C146.646 120.261 147.385 119.374 148.177 118.538C149.661 116.974 151.363 115.652 153.097 114.388C154.448 113.403 155.841 112.437 157.326 111.681C160.783 109.922 164.356 108.408 168.147 107.506C169.565 107.169 170.953 106.597 172.463 106.757C172.671 106.779 172.884 106.756 173.093 106.775C173.683 106.828 174.082 107.175 174.243 107.709C174.398 108.223 174.402 108.801 173.921 109.16C173.511 109.466 173.032 109.7 172.552 109.883C172.168 110.029 171.738 110.061 171.326 110.126C168.247 110.615 165.35 111.721 162.487 112.876C159.951 113.899 157.612 115.335 155.424 116.981C153.918 118.115 152.369 119.226 151.139 120.661C150.284 121.658 149.459 122.672 148.382 123.625Z" fill="white"/>
<path d="M220.724 158.993C220.729 160.241 220.755 161.345 220.724 162.448C220.678 164.081 220.989 165.667 221.267 167.262C221.428 168.186 221.533 169.12 221.675 170.048C221.746 170.51 221.802 170.98 221.935 171.426C222.188 172.277 221.441 173.37 220.073 172.998C219.893 172.949 219.691 172.776 219.611 172.608C219.433 172.232 219.267 171.832 219.2 171.425C218.853 169.316 218.511 167.206 218.227 165.088C218.13 164.365 218.211 163.619 218.203 162.883C218.195 162.203 218.108 161.537 218.012 160.861C217.852 159.727 217.877 158.557 217.937 157.408C217.969 156.799 218.531 156.456 219.036 156.095C219.902 156.24 220.452 156.632 220.445 157.629C220.442 158.035 220.623 158.443 220.724 158.993Z" fill="white"/>
<path d="M178.597 216.45C179.089 216.366 179.454 216.326 179.819 216.291C180.995 216.179 181.469 217.06 181.567 217.898C181.699 219.024 181.204 220.032 180.167 220.48C179.305 220.851 178.395 221.197 177.474 221.326C175.16 221.65 173.003 221.179 171.024 219.848C169.812 219.033 168.889 217.971 168.12 216.783C167.143 215.275 166.492 213.607 166.16 211.832C165.984 210.896 166.229 210.077 166.882 209.36C167.446 208.741 168.136 208.616 168.893 208.775C169.644 208.933 170.03 209.467 170.186 210.199C170.496 211.646 170.936 213.042 171.853 214.241C172.842 215.533 174.034 216.486 175.703 216.767C176.231 216.856 176.722 216.958 177.247 216.791C177.646 216.664 178.061 216.592 178.597 216.45Z" fill="#F6F6FF"/>
</svg>
